<svg width="350" height="322" viewBox="0 0 350 322" fill="none" xmlns="http://www.w3.org/2000/svg">
<g filter="url(#filter0_ddddd_53453_2589)">
<rect x="11" y="2" width="328" height="280" rx="16" fill="#E0F2F1"/>
<rect x="11.5" y="2.5" width="327" height="279" rx="15.5" stroke="url(#paint0_linear_53453_2589)"/>
<circle opacity="0.6" cx="8" cy="8" r="8" transform="matrix(1 0 0 -1 307 26)" fill="#484543"/>
<path d="M315 15.0012L309.667 20.0003L311 21.3333L315 17.6667L319 21.3333L320.333 20.0003L315 15V15.0012Z" fill="white"/>
<path d="M43 34.5L40.1 38.6C39.9778 38.7778 39.8196 38.9167 39.6253 39.0167C39.4311 39.1167 39.2227 39.1667 39 39.1667H32.3333C31.9667 39.1667 31.6527 39.036 31.3913 38.7747C31.13 38.5133 30.9996 38.1996 31 37.8333V31.1667C31 30.8 31.1307 30.486 31.392 30.2247C31.6533 29.9633 31.9671 29.8329 32.3333 29.8333H39C39.2222 29.8333 39.4307 29.8833 39.6253 29.9833C39.82 30.0833 39.9782 30.2222 40.1 30.4L43 34.5ZM41.3667 34.5L39 31.1667H32.3333V37.8333H39L41.3667 34.5ZM32.3333 34.5V37.8333V31.1667V34.5Z" fill="#1C485A"/>
<path opacity="0.5" d="M53.4758 38.5L56.7278 30.268H58.2278L61.4918 38.5H60.2558L59.4518 36.46H55.4438L54.6518 38.5H53.4758ZM55.8158 35.488H59.0678L58.0718 32.908C58.0478 32.836 58.0118 32.736 57.9638 32.608C57.9158 32.48 57.8638 32.34 57.8078 32.188C57.7518 32.028 57.6958 31.868 57.6398 31.708C57.5838 31.54 57.5318 31.388 57.4838 31.252H57.4118C57.3558 31.412 57.2918 31.596 57.2198 31.804C57.1478 32.012 57.0758 32.216 57.0038 32.416C56.9318 32.608 56.8718 32.772 56.8238 32.908L55.8158 35.488ZM64.3075 38.644C63.7875 38.644 63.3395 38.528 62.9635 38.296C62.5955 38.064 62.3075 37.704 62.0995 37.216C61.8995 36.72 61.7995 36.08 61.7995 35.296C61.7995 34.552 61.9035 33.94 62.1115 33.46C62.3195 32.98 62.6075 32.624 62.9755 32.392C63.3435 32.16 63.7715 32.044 64.2595 32.044C64.5395 32.044 64.7995 32.076 65.0395 32.14C65.2795 32.204 65.4915 32.304 65.6755 32.44C65.8675 32.576 66.0355 32.756 66.1795 32.98H66.2515V29.824H67.3075V38.5H66.4555L66.3595 37.6H66.2755C66.0595 37.952 65.7795 38.216 65.4355 38.392C65.0915 38.56 64.7155 38.644 64.3075 38.644ZM64.5595 37.72C64.9595 37.72 65.2835 37.632 65.5315 37.456C65.7795 37.28 65.9595 37.024 66.0715 36.688C66.1915 36.352 66.2515 35.936 66.2515 35.44V35.248C66.2515 34.816 66.2075 34.452 66.1195 34.156C66.0315 33.86 65.9115 33.624 65.7595 33.448C65.6075 33.272 65.4315 33.148 65.2315 33.076C65.0315 33.004 64.8195 32.968 64.5955 32.968C64.2035 32.968 63.8835 33.048 63.6355 33.208C63.3875 33.36 63.2035 33.604 63.0835 33.94C62.9635 34.268 62.9035 34.696 62.9035 35.224V35.476C62.9035 36.02 62.9675 36.46 63.0955 36.796C63.2235 37.124 63.4075 37.36 63.6475 37.504C63.8955 37.648 64.1995 37.72 64.5595 37.72ZM68.7281 31V29.824H69.7841V31H68.7281ZM68.7281 38.5V32.188H69.7841V38.5H68.7281ZM73.5834 38.644C72.9754 38.644 72.4634 38.528 72.0474 38.296C71.6394 38.056 71.3274 37.692 71.1114 37.204C70.9034 36.708 70.7994 36.088 70.7994 35.344C70.7994 34.6 70.9034 33.984 71.1114 33.496C71.3274 33.008 71.6434 32.644 72.0594 32.404C72.4834 32.164 73.0034 32.044 73.6194 32.044C74.0514 32.044 74.4234 32.1 74.7354 32.212C75.0554 32.324 75.3194 32.488 75.5274 32.704C75.7354 32.92 75.8874 33.18 75.9834 33.484C76.0874 33.788 76.1394 34.136 76.1394 34.528H75.0714C75.0714 34.16 75.0194 33.86 74.9154 33.628C74.8194 33.388 74.6634 33.212 74.4474 33.1C74.2314 32.98 73.9474 32.92 73.5954 32.92C73.2434 32.92 72.9394 33 72.6834 33.16C72.4274 33.312 72.2314 33.556 72.0954 33.892C71.9594 34.228 71.8914 34.672 71.8914 35.224V35.476C71.8914 35.996 71.9554 36.428 72.0834 36.772C72.2194 37.116 72.4154 37.368 72.6714 37.528C72.9274 37.688 73.2394 37.768 73.6074 37.768C73.9674 37.768 74.2554 37.704 74.4714 37.576C74.6954 37.448 74.8554 37.264 74.9514 37.024C75.0554 36.784 75.1074 36.496 75.1074 36.16H76.1394C76.1394 36.512 76.0874 36.84 75.9834 37.144C75.8874 37.448 75.7354 37.712 75.5274 37.936C75.3194 38.16 75.0554 38.336 74.7354 38.464C74.4154 38.584 74.0314 38.644 73.5834 38.644ZM77.166 31V29.824H78.222V31H77.166ZM77.166 38.5V32.188H78.222V38.5H77.166ZM82.2134 38.644C81.5734 38.644 81.0334 38.528 80.5934 38.296C80.1614 38.056 79.8294 37.692 79.5974 37.204C79.3734 36.716 79.2614 36.096 79.2614 35.344C79.2614 34.584 79.3734 33.964 79.5974 33.484C79.8294 32.996 80.1614 32.636 80.5934 32.404C81.0334 32.164 81.5734 32.044 82.2134 32.044C82.8534 32.044 83.3894 32.164 83.8214 32.404C84.2614 32.636 84.5934 32.996 84.8174 33.484C85.0414 33.964 85.1534 34.584 85.1534 35.344C85.1534 36.096 85.0414 36.716 84.8174 37.204C84.5934 37.692 84.2614 38.056 83.8214 38.296C83.3894 38.528 82.8534 38.644 82.2134 38.644ZM82.2134 37.756C82.6214 37.756 82.9614 37.676 83.2334 37.516C83.5054 37.356 83.7094 37.108 83.8454 36.772C83.9894 36.428 84.0614 35.996 84.0614 35.476V35.212C84.0614 34.684 83.9894 34.252 83.8454 33.916C83.7094 33.58 83.5054 33.332 83.2334 33.172C82.9614 33.012 82.6214 32.932 82.2134 32.932C81.8054 32.932 81.4614 33.012 81.1814 33.172C80.9094 33.332 80.7054 33.58 80.5694 33.916C80.4334 34.252 80.3654 34.684 80.3654 35.212V35.476C80.3654 35.996 80.4334 36.428 80.5694 36.772C80.7054 37.108 80.9094 37.356 81.1814 37.516C81.4614 37.676 81.8054 37.756 82.2134 37.756ZM86.2251 38.5V32.188H87.0771L87.1731 33.136H87.2571C87.4251 32.88 87.6131 32.672 87.8211 32.512C88.0371 32.352 88.2731 32.236 88.5291 32.164C88.7931 32.084 89.0731 32.044 89.3691 32.044C89.7691 32.044 90.1171 32.112 90.4131 32.248C90.7171 32.384 90.9531 32.604 91.1211 32.908C91.2971 33.212 91.3851 33.624 91.3851 34.144V38.5H90.3291V34.288C90.3291 34.024 90.2931 33.808 90.2211 33.64C90.1571 33.472 90.0651 33.34 89.9451 33.244C89.8331 33.148 89.6931 33.08 89.5251 33.04C89.3651 33 89.1851 32.98 88.9851 32.98C88.6891 32.98 88.4091 33.052 88.1451 33.196C87.8811 33.34 87.6691 33.548 87.5091 33.82C87.3571 34.092 87.2811 34.416 87.2811 34.792V38.5H86.2251ZM94.3308 38.644C94.0988 38.644 93.8668 38.616 93.6348 38.56C93.4028 38.504 93.1868 38.412 92.9868 38.284C92.7868 38.156 92.6268 37.98 92.5068 37.756C92.3868 37.524 92.3268 37.236 92.3268 36.892C92.3268 36.46 92.4308 36.104 92.6388 35.824C92.8468 35.544 93.1348 35.328 93.5028 35.176C93.8788 35.016 94.3228 34.908 94.8348 34.852C95.3468 34.788 95.9028 34.756 96.5028 34.756V34.036C96.5028 33.804 96.4628 33.604 96.3828 33.436C96.3028 33.268 96.1588 33.14 95.9508 33.052C95.7508 32.956 95.4628 32.908 95.0868 32.908C94.7268 32.908 94.4388 32.956 94.2228 33.052C94.0148 33.14 93.8668 33.256 93.7788 33.4C93.6988 33.544 93.6588 33.704 93.6588 33.88V34.06H92.6388C92.6308 34.02 92.6268 33.98 92.6268 33.94C92.6268 33.9 92.6268 33.852 92.6268 33.796C92.6268 33.412 92.7308 33.092 92.9388 32.836C93.1548 32.572 93.4548 32.376 93.8388 32.248C94.2228 32.112 94.6628 32.044 95.1588 32.044C95.6868 32.044 96.1268 32.12 96.4788 32.272C96.8388 32.424 97.1068 32.64 97.2828 32.92C97.4668 33.2 97.5588 33.536 97.5588 33.928V37.348C97.5588 37.5 97.5948 37.608 97.6668 37.672C97.7388 37.728 97.8268 37.756 97.9308 37.756H98.3988V38.452C98.2868 38.5 98.1628 38.54 98.0268 38.572C97.8908 38.612 97.7348 38.632 97.5588 38.632C97.3508 38.632 97.1788 38.588 97.0428 38.5C96.9068 38.42 96.8028 38.308 96.7308 38.164C96.6588 38.012 96.6108 37.844 96.5868 37.66H96.5028C96.3588 37.86 96.1748 38.036 95.9508 38.188C95.7348 38.332 95.4908 38.444 95.2188 38.524C94.9468 38.604 94.6508 38.644 94.3308 38.644ZM94.5948 37.756C94.8508 37.756 95.0908 37.716 95.3148 37.636C95.5468 37.556 95.7508 37.444 95.9268 37.3C96.1028 37.148 96.2428 36.968 96.3468 36.76C96.4508 36.552 96.5028 36.324 96.5028 36.076V35.548C95.8548 35.548 95.3028 35.584 94.8468 35.656C94.3908 35.728 94.0388 35.856 93.7908 36.04C93.5508 36.224 93.4308 36.484 93.4308 36.82C93.4308 37.036 93.4788 37.212 93.5748 37.348C93.6708 37.484 93.8068 37.588 93.9828 37.66C94.1588 37.724 94.3628 37.756 94.5948 37.756ZM99.0459 38.5V32.188H99.8979L99.9939 33.232H100.078C100.142 33.032 100.23 32.844 100.342 32.668C100.454 32.484 100.606 32.336 100.798 32.224C100.99 32.104 101.226 32.044 101.506 32.044C101.626 32.044 101.734 32.056 101.83 32.08C101.934 32.096 102.01 32.116 102.058 32.14V33.112H101.662C101.39 33.112 101.154 33.16 100.954 33.256C100.762 33.344 100.602 33.472 100.474 33.64C100.346 33.808 100.25 34.008 100.186 34.24C100.13 34.472 100.102 34.72 100.102 34.984V38.5H99.0459ZM107.044 38.5V31.264H104.224V30.268H111.028V31.264H108.184V38.5H107.044ZM111.861 38.5V32.188H112.917V38.5H111.861ZM111.753 31.408L112.797 29.824H113.985L113.997 29.86L112.677 31.408H111.753ZM115.792 38.644C115.464 38.644 115.208 38.584 115.024 38.464C114.84 38.336 114.708 38.172 114.628 37.972C114.548 37.764 114.508 37.544 114.508 37.312V33.076H113.692V32.188H114.532L114.724 30.424H115.564V32.188H116.752V33.076H115.564V37.156C115.564 37.356 115.6 37.508 115.672 37.612C115.744 37.708 115.88 37.756 116.08 37.756H116.752V38.452C116.672 38.492 116.576 38.524 116.464 38.548C116.352 38.572 116.236 38.592 116.116 38.608C116.004 38.632 115.896 38.644 115.792 38.644ZM119.595 38.644C118.987 38.644 118.499 38.488 118.131 38.176C117.763 37.864 117.579 37.32 117.579 36.544V32.188H118.635V36.4C118.635 36.664 118.667 36.88 118.731 37.048C118.795 37.216 118.887 37.348 119.007 37.444C119.127 37.54 119.267 37.608 119.427 37.648C119.595 37.688 119.775 37.708 119.967 37.708C120.271 37.708 120.551 37.636 120.807 37.492C121.063 37.348 121.271 37.14 121.431 36.868C121.599 36.588 121.683 36.264 121.683 35.896V32.188H122.739V38.5H121.887L121.791 37.552H121.707C121.539 37.808 121.347 38.016 121.131 38.176C120.923 38.336 120.687 38.452 120.423 38.524C120.167 38.604 119.891 38.644 119.595 38.644ZM124.137 38.5V29.824H125.193V38.5H124.137ZM129.184 38.644C128.544 38.644 128.004 38.528 127.564 38.296C127.132 38.056 126.8 37.692 126.568 37.204C126.344 36.716 126.232 36.096 126.232 35.344C126.232 34.584 126.344 33.964 126.568 33.484C126.8 32.996 127.132 32.636 127.564 32.404C128.004 32.164 128.544 32.044 129.184 32.044C129.824 32.044 130.36 32.164 130.792 32.404C131.232 32.636 131.564 32.996 131.788 33.484C132.012 33.964 132.124 34.584 132.124 35.344C132.124 36.096 132.012 36.716 131.788 37.204C131.564 37.692 131.232 38.056 130.792 38.296C130.36 38.528 129.824 38.644 129.184 38.644ZM129.184 37.756C129.592 37.756 129.932 37.676 130.204 37.516C130.476 37.356 130.68 37.108 130.816 36.772C130.96 36.428 131.032 35.996 131.032 35.476V35.212C131.032 34.684 130.96 34.252 130.816 33.916C130.68 33.58 130.476 33.332 130.204 33.172C129.932 33.012 129.592 32.932 129.184 32.932C128.776 32.932 128.432 33.012 128.152 33.172C127.88 33.332 127.676 33.58 127.54 33.916C127.404 34.252 127.336 34.684 127.336 35.212V35.476C127.336 35.996 127.404 36.428 127.54 36.772C127.676 37.108 127.88 37.356 128.152 37.516C128.432 37.676 128.776 37.756 129.184 37.756Z" fill="#1C485A"/>
<path opacity="0.5" d="M38.7016 77.384C37.379 77.384 36.2163 77.192 35.2136 76.808C34.211 76.4027 33.3683 75.7627 32.6856 74.888C32.0243 73.992 31.523 72.8187 31.1816 71.368C30.8616 69.9173 30.7016 68.136 30.7016 66.024C30.7016 63.8907 30.8616 62.1093 31.1816 60.68C31.523 59.2293 32.0243 58.056 32.6856 57.16C33.3683 56.264 34.211 55.624 35.2136 55.24C36.2163 54.856 37.379 54.664 38.7016 54.664C40.0456 54.664 41.2083 54.856 42.1896 55.24C43.171 55.624 43.9923 56.264 44.6536 57.16C45.3363 58.056 45.8376 59.2293 46.1576 60.68C46.499 62.1093 46.6696 63.8907 46.6696 66.024C46.6696 68.136 46.499 69.9173 46.1576 71.368C45.8376 72.8187 45.3363 73.992 44.6536 74.888C43.9923 75.7627 43.171 76.4027 42.1896 76.808C41.2083 77.192 40.0456 77.384 38.7016 77.384ZM38.7016 73.928C39.6403 73.928 40.355 73.6827 40.8456 73.192C41.3363 72.68 41.6776 71.912 41.8696 70.888C42.0616 69.864 42.1576 68.584 42.1576 67.048V65.064C42.1576 63.5067 42.0616 62.216 41.8696 61.192C41.6776 60.1467 41.3363 59.368 40.8456 58.856C40.355 58.344 39.6403 58.088 38.7016 58.088C37.763 58.088 37.0376 58.344 36.5256 58.856C36.035 59.368 35.6936 60.136 35.5016 61.16C35.3096 62.1627 35.2136 63.4427 35.2136 65V66.984C35.2136 68.5413 35.3096 69.8427 35.5016 70.888C35.6936 71.912 36.035 72.68 36.5256 73.192C37.0376 73.6827 37.763 73.928 38.7016 73.928ZM53.3149 77C53.3149 75.272 53.5175 73.576 53.9229 71.912C54.3495 70.248 54.9255 68.648 55.6509 67.112C56.3762 65.576 57.1869 64.1253 58.0829 62.76C59.0002 61.3733 59.9389 60.1253 60.8989 59.016H50.0189V55.048H66.3069V57.672C65.5602 58.568 64.8029 59.5387 64.0349 60.584C63.2669 61.6293 62.5309 62.7387 61.8269 63.912C61.1442 65.064 60.5255 66.2693 59.9709 67.528C59.4162 68.7653 58.9789 70.0453 58.6589 71.368C58.3389 72.6693 58.1789 73.9813 58.1789 75.304V77H53.3149ZM70.9994 64.744V60.168H75.6394V64.744H70.9994ZM70.9994 77V72.424H75.6394V77H70.9994ZM88.5641 77.384C87.2415 77.384 86.0788 77.192 85.0761 76.808C84.0735 76.4027 83.2308 75.7627 82.5481 74.888C81.8868 73.992 81.3855 72.8187 81.0441 71.368C80.7241 69.9173 80.5641 68.136 80.5641 66.024C80.5641 63.8907 80.7241 62.1093 81.0441 60.68C81.3855 59.2293 81.8868 58.056 82.5481 57.16C83.2308 56.264 84.0735 55.624 85.0761 55.24C86.0788 54.856 87.2415 54.664 88.5641 54.664C89.9081 54.664 91.0708 54.856 92.0521 55.24C93.0335 55.624 93.8548 56.264 94.5161 57.16C95.1988 58.056 95.7001 59.2293 96.0201 60.68C96.3615 62.1093 96.5321 63.8907 96.5321 66.024C96.5321 68.136 96.3615 69.9173 96.0201 71.368C95.7001 72.8187 95.1988 73.992 94.5161 74.888C93.8548 75.7627 93.0335 76.4027 92.0521 76.808C91.0708 77.192 89.9081 77.384 88.5641 77.384ZM88.5641 73.928C89.5028 73.928 90.2175 73.6827 90.7081 73.192C91.1988 72.68 91.5401 71.912 91.7321 70.888C91.9241 69.864 92.0201 68.584 92.0201 67.048V65.064C92.0201 63.5067 91.9241 62.216 91.7321 61.192C91.5401 60.1467 91.1988 59.368 90.7081 58.856C90.2175 58.344 89.5028 58.088 88.5641 58.088C87.6255 58.088 86.9001 58.344 86.3881 58.856C85.8975 59.368 85.5561 60.136 85.3641 61.16C85.1721 62.1627 85.0761 63.4427 85.0761 65V66.984C85.0761 68.5413 85.1721 69.8427 85.3641 70.888C85.5561 71.912 85.8975 72.68 86.3881 73.192C86.9001 73.6827 87.6255 73.928 88.5641 73.928ZM107.945 77.384C106.623 77.384 105.46 77.192 104.457 76.808C103.455 76.4027 102.612 75.7627 101.929 74.888C101.268 73.992 100.767 72.8187 100.425 71.368C100.105 69.9173 99.9454 68.136 99.9454 66.024C99.9454 63.8907 100.105 62.1093 100.425 60.68C100.767 59.2293 101.268 58.056 101.929 57.16C102.612 56.264 103.455 55.624 104.457 55.24C105.46 54.856 106.623 54.664 107.945 54.664C109.289 54.664 110.452 54.856 111.433 55.24C112.415 55.624 113.236 56.264 113.897 57.16C114.58 58.056 115.081 59.2293 115.401 60.68C115.743 62.1093 115.913 63.8907 115.913 66.024C115.913 68.136 115.743 69.9173 115.401 71.368C115.081 72.8187 114.58 73.992 113.897 74.888C113.236 75.7627 112.415 76.4027 111.433 76.808C110.452 77.192 109.289 77.384 107.945 77.384ZM107.945 73.928C108.884 73.928 109.599 73.6827 110.089 73.192C110.58 72.68 110.921 71.912 111.113 70.888C111.305 69.864 111.401 68.584 111.401 67.048V65.064C111.401 63.5067 111.305 62.216 111.113 61.192C110.921 60.1467 110.58 59.368 110.089 58.856C109.599 58.344 108.884 58.088 107.945 58.088C107.007 58.088 106.281 58.344 105.769 58.856C105.279 59.368 104.937 60.136 104.745 61.16C104.553 62.1627 104.457 63.4427 104.457 65V66.984C104.457 68.5413 104.553 69.8427 104.745 70.888C104.937 71.912 105.279 72.68 105.769 73.192C106.281 73.6827 107.007 73.928 107.945 73.928ZM124.614 77L133.062 55.048H138.95L147.398 77H142.246L140.678 72.68H131.11L129.542 77H124.614ZM132.486 68.84H139.302L137.35 63.432C137.265 63.1973 137.158 62.92 137.03 62.6C136.923 62.2587 136.806 61.8853 136.678 61.48C136.55 61.0747 136.422 60.68 136.294 60.296C136.187 59.8907 136.081 59.528 135.974 59.208H135.782C135.675 59.6133 135.537 60.0933 135.366 60.648C135.195 61.1813 135.025 61.704 134.854 62.216C134.683 62.7067 134.545 63.112 134.438 63.432L132.486 68.84ZM150.36 77V55.048H157.624L160.76 66.28C160.888 66.6853 161.016 67.1653 161.144 67.72C161.272 68.2747 161.4 68.8293 161.528 69.384C161.677 69.9173 161.795 70.3973 161.88 70.824H162.136C162.179 70.4613 162.253 70.0347 162.36 69.544C162.467 69.032 162.584 68.488 162.712 67.912C162.84 67.336 162.979 66.7813 163.128 66.248L166.264 55.048H173.4V77H168.696V66.6C168.696 65.64 168.696 64.68 168.696 63.72C168.717 62.7387 168.739 61.8853 168.76 61.16C168.803 60.4347 168.824 59.9653 168.824 59.752H168.568C168.525 59.9867 168.419 60.424 168.248 61.064C168.099 61.6827 167.928 62.344 167.736 63.048C167.565 63.752 167.405 64.36 167.256 64.872L163.832 77H159.672L156.216 64.904C156.088 64.456 155.939 63.9333 155.768 63.336C155.619 62.7173 155.469 62.088 155.32 61.448C155.192 60.7867 155.064 60.2213 154.936 59.752H154.68C154.701 60.328 154.723 61.0213 154.744 61.832C154.765 62.6213 154.787 63.4427 154.808 64.296C154.829 65.128 154.84 65.896 154.84 66.6V77H150.36Z" fill="black"/>
<path opacity="0.5" d="M30.032 103V94.768H33.104C33.968 94.768 34.704 94.912 35.312 95.2C35.92 95.488 36.384 95.936 36.704 96.544C37.032 97.144 37.196 97.924 37.196 98.884C37.196 99.828 37.032 100.604 36.704 101.212C36.384 101.82 35.92 102.272 35.312 102.568C34.704 102.856 33.968 103 33.104 103H30.032ZM31.172 102.016H33.08C33.536 102.016 33.944 101.96 34.304 101.848C34.664 101.728 34.972 101.548 35.228 101.308C35.484 101.068 35.676 100.76 35.804 100.384C35.94 100 36.008 99.544 36.008 99.016V98.776C36.008 98.232 35.94 97.772 35.804 97.396C35.676 97.012 35.484 96.7 35.228 96.46C34.98 96.22 34.676 96.044 34.316 95.932C33.956 95.812 33.544 95.752 33.08 95.752H31.172V102.016ZM38.4005 95.5V94.324H39.4565V95.5H38.4005ZM38.4005 103V96.688H39.4565V103H38.4005ZM42.4398 103.144C42.2078 103.144 41.9758 103.116 41.7438 103.06C41.5118 103.004 41.2958 102.912 41.0958 102.784C40.8958 102.656 40.7358 102.48 40.6158 102.256C40.4958 102.024 40.4358 101.736 40.4358 101.392C40.4358 100.96 40.5398 100.604 40.7478 100.324C40.9558 100.044 41.2438 99.828 41.6118 99.676C41.9878 99.516 42.4318 99.408 42.9438 99.352C43.4558 99.288 44.0118 99.256 44.6118 99.256V98.536C44.6118 98.304 44.5718 98.104 44.4918 97.936C44.4118 97.768 44.2678 97.64 44.0598 97.552C43.8598 97.456 43.5718 97.408 43.1958 97.408C42.8358 97.408 42.5478 97.456 42.3318 97.552C42.1238 97.64 41.9758 97.756 41.8878 97.9C41.8078 98.044 41.7678 98.204 41.7678 98.38V98.56H40.7478C40.7398 98.52 40.7358 98.48 40.7358 98.44C40.7358 98.4 40.7358 98.352 40.7358 98.296C40.7358 97.912 40.8398 97.592 41.0478 97.336C41.2638 97.072 41.5638 96.876 41.9478 96.748C42.3318 96.612 42.7718 96.544 43.2678 96.544C43.7958 96.544 44.2358 96.62 44.5878 96.772C44.9478 96.924 45.2158 97.14 45.3918 97.42C45.5758 97.7 45.6678 98.036 45.6678 98.428V101.848C45.6678 102 45.7038 102.108 45.7758 102.172C45.8478 102.228 45.9358 102.256 46.0398 102.256H46.5078V102.952C46.3958 103 46.2718 103.04 46.1358 103.072C45.9998 103.112 45.8438 103.132 45.6678 103.132C45.4598 103.132 45.2878 103.088 45.1518 103C45.0158 102.92 44.9118 102.808 44.8398 102.664C44.7678 102.512 44.7198 102.344 44.6958 102.16H44.6118C44.4678 102.36 44.2838 102.536 44.0598 102.688C43.8438 102.832 43.5998 102.944 43.3278 103.024C43.0558 103.104 42.7598 103.144 42.4398 103.144ZM42.7038 102.256C42.9598 102.256 43.1998 102.216 43.4238 102.136C43.6558 102.056 43.8598 101.944 44.0358 101.8C44.2118 101.648 44.3518 101.468 44.4558 101.26C44.5598 101.052 44.6118 100.824 44.6118 100.576V100.048C43.9638 100.048 43.4118 100.084 42.9558 100.156C42.4998 100.228 42.1478 100.356 41.8998 100.54C41.6598 100.724 41.5398 100.984 41.5398 101.32C41.5398 101.536 41.5878 101.712 41.6838 101.848C41.7798 101.984 41.9158 102.088 42.0918 102.16C42.2678 102.224 42.4718 102.256 42.7038 102.256ZM47.1549 103V96.688H48.0069L48.1029 97.732H48.1869C48.2509 97.532 48.3389 97.344 48.4509 97.168C48.5629 96.984 48.7149 96.836 48.9069 96.724C49.0989 96.604 49.3349 96.544 49.6149 96.544C49.7349 96.544 49.8429 96.556 49.9389 96.58C50.0429 96.596 50.1189 96.616 50.1669 96.64V97.612H49.7709C49.4989 97.612 49.2629 97.66 49.0629 97.756C48.8709 97.844 48.7109 97.972 48.5829 98.14C48.4549 98.308 48.3589 98.508 48.2949 98.74C48.2389 98.972 48.2109 99.22 48.2109 99.484V103H47.1549ZM50.8993 95.5V94.324H51.9553V95.5H50.8993ZM50.8993 103V96.688H51.9553V103H50.8993ZM54.9386 103.144C54.7066 103.144 54.4746 103.116 54.2426 103.06C54.0106 103.004 53.7946 102.912 53.5946 102.784C53.3946 102.656 53.2346 102.48 53.1146 102.256C52.9946 102.024 52.9346 101.736 52.9346 101.392C52.9346 100.96 53.0386 100.604 53.2466 100.324C53.4546 100.044 53.7426 99.828 54.1106 99.676C54.4866 99.516 54.9306 99.408 55.4426 99.352C55.9546 99.288 56.5106 99.256 57.1106 99.256V98.536C57.1106 98.304 57.0706 98.104 56.9906 97.936C56.9106 97.768 56.7666 97.64 56.5586 97.552C56.3586 97.456 56.0706 97.408 55.6946 97.408C55.3346 97.408 55.0466 97.456 54.8306 97.552C54.6226 97.64 54.4746 97.756 54.3866 97.9C54.3066 98.044 54.2666 98.204 54.2666 98.38V98.56H53.2466C53.2386 98.52 53.2346 98.48 53.2346 98.44C53.2346 98.4 53.2346 98.352 53.2346 98.296C53.2346 97.912 53.3386 97.592 53.5466 97.336C53.7626 97.072 54.0626 96.876 54.4466 96.748C54.8306 96.612 55.2706 96.544 55.7666 96.544C56.2946 96.544 56.7346 96.62 57.0866 96.772C57.4466 96.924 57.7146 97.14 57.8906 97.42C58.0746 97.7 58.1666 98.036 58.1666 98.428V101.848C58.1666 102 58.2026 102.108 58.2746 102.172C58.3466 102.228 58.4346 102.256 58.5386 102.256H59.0066V102.952C58.8946 103 58.7706 103.04 58.6346 103.072C58.4986 103.112 58.3426 103.132 58.1666 103.132C57.9586 103.132 57.7866 103.088 57.6506 103C57.5146 102.92 57.4106 102.808 57.3386 102.664C57.2666 102.512 57.2186 102.344 57.1946 102.16H57.1106C56.9666 102.36 56.7826 102.536 56.5586 102.688C56.3426 102.832 56.0986 102.944 55.8266 103.024C55.5546 103.104 55.2586 103.144 54.9386 103.144ZM55.2026 102.256C55.4586 102.256 55.6986 102.216 55.9226 102.136C56.1546 102.056 56.3586 101.944 56.5346 101.8C56.7106 101.648 56.8506 101.468 56.9546 101.26C57.0586 101.052 57.1106 100.824 57.1106 100.576V100.048C56.4626 100.048 55.9106 100.084 55.4546 100.156C54.9986 100.228 54.6466 100.356 54.3986 100.54C54.1586 100.724 54.0386 100.984 54.0386 101.32C54.0386 101.536 54.0866 101.712 54.1826 101.848C54.2786 101.984 54.4146 102.088 54.5906 102.16C54.7666 102.224 54.9706 102.256 55.2026 102.256ZM59.6536 103V96.688H60.5056L60.6016 97.636H60.6856C60.8456 97.38 61.0256 97.172 61.2256 97.012C61.4256 96.852 61.6456 96.736 61.8856 96.664C62.1256 96.584 62.3856 96.544 62.6656 96.544C63.0736 96.544 63.4256 96.628 63.7216 96.796C64.0176 96.956 64.2376 97.236 64.3816 97.636H64.4536C64.6056 97.38 64.7816 97.176 64.9816 97.024C65.1816 96.864 65.4056 96.744 65.6536 96.664C65.9016 96.584 66.1656 96.544 66.4456 96.544C66.8296 96.544 67.1656 96.612 67.4536 96.748C67.7416 96.876 67.9656 97.092 68.1256 97.396C68.2936 97.692 68.3776 98.092 68.3776 98.596V103H67.3216V98.764C67.3216 98.508 67.2896 98.296 67.2256 98.128C67.1696 97.96 67.0856 97.832 66.9736 97.744C66.8616 97.648 66.7296 97.58 66.5776 97.54C66.4336 97.5 66.2776 97.48 66.1096 97.48C65.8296 97.48 65.5696 97.552 65.3296 97.696C65.0976 97.84 64.9096 98.048 64.7656 98.32C64.6216 98.592 64.5496 98.916 64.5496 99.292V103H63.4936V98.764C63.4936 98.508 63.4616 98.296 63.3976 98.128C63.3336 97.96 63.2496 97.832 63.1456 97.744C63.0416 97.648 62.9136 97.58 62.7616 97.54C62.6176 97.5 62.4656 97.48 62.3056 97.48C62.0176 97.48 61.7496 97.552 61.5016 97.696C61.2616 97.84 61.0696 98.048 60.9256 98.32C60.7816 98.592 60.7096 98.916 60.7096 99.292V103H59.6536ZM72.2578 103.144C71.6338 103.144 71.1058 103.028 70.6738 102.796C70.2498 102.556 69.9258 102.192 69.7018 101.704C69.4858 101.216 69.3778 100.596 69.3778 99.844C69.3778 99.084 69.4858 98.464 69.7018 97.984C69.9258 97.496 70.2538 97.136 70.6858 96.904C71.1178 96.664 71.6578 96.544 72.3058 96.544C72.8978 96.544 73.3938 96.66 73.7938 96.892C74.1938 97.116 74.4938 97.456 74.6938 97.912C74.9018 98.36 75.0058 98.924 75.0058 99.604V100.108H70.4698C70.4858 100.612 70.5578 101.028 70.6858 101.356C70.8218 101.676 71.0218 101.912 71.2858 102.064C71.5498 102.208 71.8818 102.28 72.2818 102.28C72.5538 102.28 72.7898 102.248 72.9898 102.184C73.1978 102.112 73.3698 102.012 73.5058 101.884C73.6498 101.756 73.7578 101.604 73.8298 101.428C73.9018 101.252 73.9418 101.06 73.9498 100.852H74.9818C74.9738 101.188 74.9098 101.5 74.7898 101.788C74.6698 102.068 74.4938 102.308 74.2618 102.508C74.0298 102.708 73.7458 102.864 73.4098 102.976C73.0738 103.088 72.6898 103.144 72.2578 103.144ZM70.4938 99.316H73.9138C73.9138 98.964 73.8738 98.668 73.7938 98.428C73.7138 98.188 73.5978 97.992 73.4458 97.84C73.3018 97.688 73.1298 97.58 72.9298 97.516C72.7378 97.444 72.5178 97.408 72.2698 97.408C71.9018 97.408 71.5898 97.476 71.3338 97.612C71.0778 97.748 70.8818 97.956 70.7458 98.236C70.6098 98.516 70.5258 98.876 70.4938 99.316ZM76.0721 103V96.688H76.9241L77.0201 97.636H77.1041C77.2721 97.38 77.4601 97.172 77.6681 97.012C77.8841 96.852 78.1201 96.736 78.3761 96.664C78.6401 96.584 78.9201 96.544 79.2161 96.544C79.6161 96.544 79.9641 96.612 80.2601 96.748C80.5641 96.884 80.8001 97.104 80.9681 97.408C81.1441 97.712 81.2321 98.124 81.2321 98.644V103H80.1761V98.788C80.1761 98.524 80.1401 98.308 80.0681 98.14C80.0041 97.972 79.9121 97.84 79.7921 97.744C79.6801 97.648 79.5401 97.58 79.3721 97.54C79.2121 97.5 79.0321 97.48 78.8321 97.48C78.5361 97.48 78.2561 97.552 77.9921 97.696C77.7281 97.84 77.5161 98.048 77.3561 98.32C77.2041 98.592 77.1281 98.916 77.1281 99.292V103H76.0721ZM84.0698 103.144C83.7418 103.144 83.4858 103.084 83.3018 102.964C83.1178 102.836 82.9858 102.672 82.9058 102.472C82.8258 102.264 82.7858 102.044 82.7858 101.812V97.576H81.9698V96.688H82.8098L83.0018 94.924H83.8418V96.688H85.0298V97.576H83.8418V101.656C83.8418 101.856 83.8778 102.008 83.9498 102.112C84.0218 102.208 84.1578 102.256 84.3578 102.256H85.0298V102.952C84.9498 102.992 84.8538 103.024 84.7418 103.048C84.6298 103.072 84.5138 103.092 84.3938 103.108C84.2818 103.132 84.1738 103.144 84.0698 103.144ZM88.4363 103.144C87.8123 103.144 87.2843 103.028 86.8523 102.796C86.4283 102.556 86.1043 102.192 85.8803 101.704C85.6643 101.216 85.5563 100.596 85.5563 99.844C85.5563 99.084 85.6643 98.464 85.8803 97.984C86.1043 97.496 86.4323 97.136 86.8643 96.904C87.2963 96.664 87.8363 96.544 88.4843 96.544C89.0763 96.544 89.5723 96.66 89.9723 96.892C90.3723 97.116 90.6723 97.456 90.8723 97.912C91.0803 98.36 91.1843 98.924 91.1843 99.604V100.108H86.6483C86.6643 100.612 86.7363 101.028 86.8643 101.356C87.0003 101.676 87.2003 101.912 87.4643 102.064C87.7283 102.208 88.0603 102.28 88.4603 102.28C88.7323 102.28 88.9683 102.248 89.1683 102.184C89.3763 102.112 89.5483 102.012 89.6843 101.884C89.8283 101.756 89.9363 101.604 90.0083 101.428C90.0803 101.252 90.1203 101.06 90.1283 100.852H91.1603C91.1523 101.188 91.0883 101.5 90.9683 101.788C90.8483 102.068 90.6723 102.308 90.4403 102.508C90.2083 102.708 89.9243 102.864 89.5883 102.976C89.2523 103.088 88.8683 103.144 88.4363 103.144ZM86.6723 99.316H90.0923C90.0923 98.964 90.0523 98.668 89.9723 98.428C89.8923 98.188 89.7763 97.992 89.6243 97.84C89.4803 97.688 89.3083 97.58 89.1083 97.516C88.9163 97.444 88.6963 97.408 88.4483 97.408C88.0803 97.408 87.7683 97.476 87.5123 97.612C87.2563 97.748 87.0603 97.956 86.9243 98.236C86.7883 98.516 86.7043 98.876 86.6723 99.316Z" fill="#071216"/>
<rect x="288.5" y="90.5" width="37" height="17" rx="8.5" fill="white"/>
<rect x="288.5" y="90.5" width="37" height="17" rx="8.5" stroke="#484543"/>
<circle cx="297" cy="99" r="7" fill="#00B7C0"/>
<rect x="24.5" y="121" width="33" height="33" rx="16.5" fill="#00B7C0"/>
<path d="M37.3587 144.5V130.78H39.2587V142.84H46.0787V144.5H37.3587Z" fill="white"/>
<rect x="69.5" y="121" width="33" height="33" rx="16.5" fill="#00B7C0"/>
<path d="M79.0566 144.5V130.408H81.0879L85.9707 142.283H86.0293L90.9121 130.408H92.9434V144.5H91.3027V133.611H91.2441L86.7422 144.5H85.2578L80.7559 133.611H80.6973V144.5H79.0566Z" fill="white"/>
<rect x="114.5" y="121" width="33" height="33" rx="16.5" fill="#00B7C0"/>
<path d="M124.057 144.5V130.408H126.088L130.971 142.283H131.029L135.912 130.408H137.943V144.5H136.303V133.611H136.244L131.742 144.5H130.258L125.756 133.611H125.697V144.5H124.057Z" fill="white"/>
<rect x="159.5" y="121" width="33" height="33" rx="16.5" fill="#00B7C0"/>
<path d="M175.494 144.74C174.574 144.74 173.781 144.593 173.114 144.3C172.461 143.993 171.961 143.553 171.614 142.98C171.281 142.393 171.114 141.66 171.114 140.78V140.18H173.014V140.88C173.014 141.6 173.227 142.153 173.654 142.54C174.081 142.913 174.694 143.1 175.494 143.1C176.307 143.1 176.927 142.84 177.354 142.32C177.794 141.8 178.014 141.027 178.014 140V130.78H179.914V139.9C179.914 140.98 179.741 141.88 179.394 142.6C179.047 143.32 178.541 143.86 177.874 144.22C177.221 144.567 176.427 144.74 175.494 144.74Z" fill="white"/>
<rect x="204.5" y="121" width="33" height="33" rx="16.5" fill="#00B7C0"/>
<path d="M219.836 144.5L214.716 130.78H216.776L220.296 140.5C220.376 140.687 220.456 140.9 220.536 141.14C220.616 141.38 220.696 141.613 220.776 141.84C220.856 142.067 220.929 142.267 220.996 142.44H221.116C221.169 142.28 221.236 142.087 221.316 141.86C221.396 141.633 221.476 141.407 221.556 141.18C221.636 140.94 221.716 140.713 221.796 140.5L225.276 130.78H227.276L222.136 144.5H219.836Z" fill="white"/>
<rect x="249.5" y="121" width="33" height="33" rx="16.5" fill="#00B7C0"/>
<path d="M266.031 144.74C265.285 144.74 264.565 144.667 263.871 144.52C263.191 144.373 262.585 144.14 262.051 143.82C261.518 143.487 261.091 143.06 260.771 142.54C260.465 142.02 260.311 141.38 260.311 140.62C260.311 140.553 260.311 140.487 260.311 140.42C260.325 140.353 260.331 140.287 260.331 140.22H262.251C262.251 140.26 262.245 140.327 262.231 140.42C262.231 140.5 262.231 140.573 262.231 140.64C262.231 141.173 262.391 141.627 262.711 142C263.031 142.373 263.471 142.653 264.031 142.84C264.605 143.013 265.251 143.1 265.971 143.1C266.291 143.1 266.625 143.08 266.971 143.04C267.331 143 267.671 142.933 267.991 142.84C268.325 142.733 268.618 142.6 268.871 142.44C269.138 142.267 269.345 142.06 269.491 141.82C269.651 141.567 269.731 141.26 269.731 140.9C269.731 140.447 269.598 140.073 269.331 139.78C269.078 139.473 268.738 139.227 268.311 139.04C267.885 138.84 267.398 138.667 266.851 138.52C266.318 138.36 265.765 138.207 265.191 138.06C264.618 137.913 264.058 137.747 263.511 137.56C262.978 137.36 262.498 137.12 262.071 136.84C261.645 136.547 261.298 136.187 261.031 135.76C260.778 135.333 260.651 134.813 260.651 134.2C260.651 133.627 260.765 133.113 260.991 132.66C261.231 132.207 261.578 131.827 262.031 131.52C262.498 131.2 263.071 130.96 263.751 130.8C264.431 130.627 265.211 130.54 266.091 130.54C266.811 130.54 267.478 130.62 268.091 130.78C268.718 130.927 269.265 131.16 269.731 131.48C270.211 131.787 270.585 132.18 270.851 132.66C271.118 133.14 271.251 133.72 271.251 134.4V134.64H269.371V134.34C269.371 133.887 269.231 133.5 268.951 133.18C268.671 132.86 268.285 132.613 267.791 132.44C267.311 132.267 266.765 132.18 266.151 132.18C265.351 132.18 264.685 132.26 264.151 132.42C263.618 132.567 263.218 132.787 262.951 133.08C262.698 133.36 262.571 133.68 262.571 134.04C262.571 134.453 262.698 134.8 262.951 135.08C263.218 135.36 263.565 135.593 263.991 135.78C264.418 135.953 264.905 136.113 265.451 136.26C265.998 136.407 266.551 136.56 267.111 136.72C267.685 136.867 268.238 137.04 268.771 137.24C269.318 137.427 269.805 137.667 270.231 137.96C270.671 138.24 271.018 138.6 271.271 139.04C271.525 139.467 271.651 139.993 271.651 140.62C271.651 141.593 271.411 142.387 270.931 143C270.451 143.6 269.791 144.04 268.951 144.32C268.111 144.6 267.138 144.74 266.031 144.74Z" fill="white"/>
<rect x="294.5" y="121" width="33" height="33" rx="16.5" fill="#00B7C0"/>
<path d="M305.376 144.5V130.78H310.496C311.936 130.78 313.163 131.02 314.176 131.5C315.19 131.98 315.963 132.727 316.496 133.74C317.043 134.74 317.316 136.04 317.316 137.64C317.316 139.213 317.043 140.507 316.496 141.52C315.963 142.533 315.19 143.287 314.176 143.78C313.163 144.26 311.936 144.5 310.496 144.5H305.376ZM307.276 142.86H310.456C311.216 142.86 311.896 142.767 312.496 142.58C313.096 142.38 313.61 142.08 314.036 141.68C314.463 141.28 314.783 140.767 314.996 140.14C315.223 139.5 315.336 138.74 315.336 137.86V137.46C315.336 136.553 315.223 135.787 314.996 135.16C314.783 134.52 314.463 134 314.036 133.6C313.623 133.2 313.116 132.907 312.516 132.72C311.916 132.52 311.23 132.42 310.456 132.42H307.276V142.86Z" fill="white"/>
<circle opacity="0.5" cx="35" cy="178" r="8" fill="#484543"/>
<path d="M34.2679 179.93L36.817 178.322C36.939 178.244 37 178.137 37 178C37 177.863 36.939 177.755 36.817 177.678L34.2679 176.07C34.1372 175.984 34.0042 175.977 33.869 176.05C33.7337 176.123 33.6663 176.237 33.6666 176.391V179.608C33.6666 179.763 33.7343 179.877 33.8695 179.95C34.0048 180.023 34.1376 180.016 34.2679 179.93Z" fill="#C7E8F6"/>
<circle cx="35" cy="178" r="4.83333" stroke="#484543"/>
<path d="M58.056 182.144C57.608 182.144 57.176 182.1 56.76 182.012C56.352 181.924 55.988 181.784 55.668 181.592C55.348 181.392 55.092 181.136 54.9 180.824C54.716 180.512 54.624 180.128 54.624 179.672C54.624 179.632 54.624 179.592 54.624 179.552C54.632 179.512 54.636 179.472 54.636 179.432H55.788C55.788 179.456 55.784 179.496 55.776 179.552C55.776 179.6 55.776 179.644 55.776 179.684C55.776 180.004 55.872 180.276 56.064 180.5C56.256 180.724 56.52 180.892 56.856 181.004C57.2 181.108 57.588 181.16 58.02 181.16C58.212 181.16 58.412 181.148 58.62 181.124C58.836 181.1 59.04 181.06 59.232 181.004C59.432 180.94 59.608 180.86 59.76 180.764C59.92 180.66 60.044 180.536 60.132 180.392C60.228 180.24 60.276 180.056 60.276 179.84C60.276 179.568 60.196 179.344 60.036 179.168C59.884 178.984 59.68 178.836 59.424 178.724C59.168 178.604 58.876 178.5 58.548 178.412C58.228 178.316 57.896 178.224 57.552 178.136C57.208 178.048 56.872 177.948 56.544 177.836C56.224 177.716 55.936 177.572 55.68 177.404C55.424 177.228 55.216 177.012 55.056 176.756C54.904 176.5 54.828 176.188 54.828 175.82C54.828 175.476 54.896 175.168 55.032 174.896C55.176 174.624 55.384 174.396 55.656 174.212C55.936 174.02 56.28 173.876 56.688 173.78C57.096 173.676 57.564 173.624 58.092 173.624C58.524 173.624 58.924 173.672 59.292 173.768C59.668 173.856 59.996 173.996 60.276 174.188C60.564 174.372 60.788 174.608 60.948 174.896C61.108 175.184 61.188 175.532 61.188 175.94V176.084H60.06V175.904C60.06 175.632 59.976 175.4 59.808 175.208C59.64 175.016 59.408 174.868 59.112 174.764C58.824 174.66 58.496 174.608 58.128 174.608C57.648 174.608 57.248 174.656 56.928 174.752C56.608 174.84 56.368 174.972 56.208 175.148C56.056 175.316 55.98 175.508 55.98 175.724C55.98 175.972 56.056 176.18 56.208 176.348C56.368 176.516 56.576 176.656 56.832 176.768C57.088 176.872 57.38 176.968 57.708 177.056C58.036 177.144 58.368 177.236 58.704 177.332C59.048 177.42 59.38 177.524 59.7 177.644C60.028 177.756 60.32 177.9 60.576 178.076C60.84 178.244 61.048 178.46 61.2 178.724C61.352 178.98 61.428 179.296 61.428 179.672C61.428 180.256 61.284 180.732 60.996 181.1C60.708 181.46 60.312 181.724 59.808 181.892C59.304 182.06 58.72 182.144 58.056 182.144ZM65.2542 182.144C64.6142 182.144 64.0742 182.028 63.6342 181.796C63.2022 181.556 62.8702 181.192 62.6382 180.704C62.4142 180.216 62.3022 179.596 62.3022 178.844C62.3022 178.084 62.4142 177.464 62.6382 176.984C62.8702 176.496 63.2022 176.136 63.6342 175.904C64.0742 175.664 64.6142 175.544 65.2542 175.544C65.8942 175.544 66.4302 175.664 66.8622 175.904C67.3022 176.136 67.6342 176.496 67.8582 176.984C68.0822 177.464 68.1942 178.084 68.1942 178.844C68.1942 179.596 68.0822 180.216 67.8582 180.704C67.6342 181.192 67.3022 181.556 66.8622 181.796C66.4302 182.028 65.8942 182.144 65.2542 182.144ZM65.2542 181.256C65.6622 181.256 66.0022 181.176 66.2742 181.016C66.5462 180.856 66.7502 180.608 66.8862 180.272C67.0302 179.928 67.1022 179.496 67.1022 178.976V178.712C67.1022 178.184 67.0302 177.752 66.8862 177.416C66.7502 177.08 66.5462 176.832 66.2742 176.672C66.0022 176.512 65.6622 176.432 65.2542 176.432C64.8462 176.432 64.5022 176.512 64.2222 176.672C63.9502 176.832 63.7462 177.08 63.6102 177.416C63.4742 177.752 63.4062 178.184 63.4062 178.712V178.976C63.4062 179.496 63.4742 179.928 63.6102 180.272C63.7462 180.608 63.9502 180.856 64.2222 181.016C64.5022 181.176 64.8462 181.256 65.2542 181.256ZM69.266 182V175.688H70.118L70.214 176.636H70.298C70.466 176.38 70.654 176.172 70.862 176.012C71.078 175.852 71.314 175.736 71.57 175.664C71.834 175.584 72.114 175.544 72.41 175.544C72.81 175.544 73.158 175.612 73.454 175.748C73.758 175.884 73.994 176.104 74.162 176.408C74.338 176.712 74.426 177.124 74.426 177.644V182H73.37V177.788C73.37 177.524 73.334 177.308 73.262 177.14C73.198 176.972 73.106 176.84 72.986 176.744C72.874 176.648 72.734 176.58 72.566 176.54C72.406 176.5 72.226 176.48 72.026 176.48C71.73 176.48 71.45 176.552 71.186 176.696C70.922 176.84 70.71 177.048 70.55 177.32C70.398 177.592 70.322 177.916 70.322 178.292V182H69.266ZM75.7877 174.5V173.324H76.8437V174.5H75.7877ZM75.7877 182V175.688H76.8437V182H75.7877ZM80.391 182.144C79.871 182.144 79.423 182.028 79.047 181.796C78.679 181.564 78.391 181.204 78.183 180.716C77.983 180.22 77.883 179.58 77.883 178.796C77.883 178.052 77.987 177.44 78.195 176.96C78.403 176.48 78.691 176.124 79.059 175.892C79.427 175.66 79.855 175.544 80.343 175.544C80.623 175.544 80.883 175.576 81.123 175.64C81.363 175.704 81.575 175.804 81.759 175.94C81.951 176.076 82.119 176.256 82.263 176.48H82.335V173.324H83.391V182H82.539L82.443 181.1H82.359C82.143 181.452 81.863 181.716 81.519 181.892C81.175 182.06 80.799 182.144 80.391 182.144ZM80.643 181.22C81.043 181.22 81.367 181.132 81.615 180.956C81.863 180.78 82.043 180.524 82.155 180.188C82.275 179.852 82.335 179.436 82.335 178.94V178.748C82.335 178.316 82.291 177.952 82.203 177.656C82.115 177.36 81.995 177.124 81.843 176.948C81.691 176.772 81.515 176.648 81.315 176.576C81.115 176.504 80.903 176.468 80.679 176.468C80.287 176.468 79.967 176.548 79.719 176.708C79.471 176.86 79.287 177.104 79.167 177.44C79.047 177.768 78.987 178.196 78.987 178.724V178.976C78.987 179.52 79.051 179.96 79.179 180.296C79.307 180.624 79.491 180.86 79.731 181.004C79.979 181.148 80.283 181.22 80.643 181.22ZM87.4036 182.144C86.7636 182.144 86.2236 182.028 85.7836 181.796C85.3516 181.556 85.0196 181.192 84.7876 180.704C84.5636 180.216 84.4516 179.596 84.4516 178.844C84.4516 178.084 84.5636 177.464 84.7876 176.984C85.0196 176.496 85.3516 176.136 85.7836 175.904C86.2236 175.664 86.7636 175.544 87.4036 175.544C88.0436 175.544 88.5796 175.664 89.0116 175.904C89.4516 176.136 89.7836 176.496 90.0076 176.984C90.2316 177.464 90.3436 178.084 90.3436 178.844C90.3436 179.596 90.2316 180.216 90.0076 180.704C89.7836 181.192 89.4516 181.556 89.0116 181.796C88.5796 182.028 88.0436 182.144 87.4036 182.144ZM87.4036 181.256C87.8116 181.256 88.1516 181.176 88.4236 181.016C88.6956 180.856 88.8996 180.608 89.0356 180.272C89.1796 179.928 89.2516 179.496 89.2516 178.976V178.712C89.2516 178.184 89.1796 177.752 89.0356 177.416C88.8996 177.08 88.6956 176.832 88.4236 176.672C88.1516 176.512 87.8116 176.432 87.4036 176.432C86.9956 176.432 86.6516 176.512 86.3716 176.672C86.0996 176.832 85.8956 177.08 85.7596 177.416C85.6236 177.752 85.5556 178.184 85.5556 178.712V178.976C85.5556 179.496 85.6236 179.928 85.7596 180.272C85.8956 180.608 86.0996 180.856 86.3716 181.016C86.6516 181.176 86.9956 181.256 87.4036 181.256Z" fill="#484543"/>
<path d="M289.119 182L292.371 173.768H293.871L297.135 182H295.899L295.095 179.96H291.087L290.295 182H289.119ZM291.459 178.988H294.711L293.715 176.408C293.691 176.336 293.655 176.236 293.607 176.108C293.559 175.98 293.507 175.84 293.451 175.688C293.395 175.528 293.339 175.368 293.283 175.208C293.227 175.04 293.175 174.888 293.127 174.752H293.055C292.999 174.912 292.935 175.096 292.863 175.304C292.791 175.512 292.719 175.716 292.647 175.916C292.575 176.108 292.515 176.272 292.467 176.408L291.459 178.988ZM300.44 182.144C299.832 182.144 299.344 181.988 298.976 181.676C298.608 181.364 298.424 180.82 298.424 180.044V175.688H299.48V179.9C299.48 180.164 299.512 180.38 299.576 180.548C299.64 180.716 299.732 180.848 299.852 180.944C299.972 181.04 300.112 181.108 300.272 181.148C300.44 181.188 300.62 181.208 300.812 181.208C301.116 181.208 301.396 181.136 301.652 180.992C301.908 180.848 302.116 180.64 302.276 180.368C302.444 180.088 302.528 179.764 302.528 179.396V175.688H303.584V182H302.732L302.636 181.052H302.552C302.384 181.308 302.192 181.516 301.976 181.676C301.768 181.836 301.532 181.952 301.268 182.024C301.012 182.104 300.736 182.144 300.44 182.144ZM307.871 182.144C307.351 182.144 306.903 182.028 306.527 181.796C306.159 181.564 305.871 181.204 305.663 180.716C305.463 180.22 305.363 179.58 305.363 178.796C305.363 178.052 305.467 177.44 305.675 176.96C305.883 176.48 306.171 176.124 306.539 175.892C306.907 175.66 307.335 175.544 307.823 175.544C308.103 175.544 308.363 175.576 308.603 175.64C308.843 175.704 309.055 175.804 309.239 175.94C309.431 176.076 309.599 176.256 309.743 176.48H309.815V173.324H310.871V182H310.019L309.923 181.1H309.839C309.623 181.452 309.343 181.716 308.999 181.892C308.655 182.06 308.279 182.144 307.871 182.144ZM308.123 181.22C308.523 181.22 308.847 181.132 309.095 180.956C309.343 180.78 309.523 180.524 309.635 180.188C309.755 179.852 309.815 179.436 309.815 178.94V178.748C309.815 178.316 309.771 177.952 309.683 177.656C309.595 177.36 309.475 177.124 309.323 176.948C309.171 176.772 308.995 176.648 308.795 176.576C308.595 176.504 308.383 176.468 308.159 176.468C307.767 176.468 307.447 176.548 307.199 176.708C306.951 176.86 306.767 177.104 306.647 177.44C306.527 177.768 306.467 178.196 306.467 178.724V178.976C306.467 179.52 306.531 179.96 306.659 180.296C306.787 180.624 306.971 180.86 307.211 181.004C307.459 181.148 307.763 181.22 308.123 181.22ZM313.031 174.5V173.324H314.087V174.5H313.031ZM313.031 182V175.688H314.087V182H313.031ZM318.818 182.144C318.178 182.144 317.638 182.028 317.198 181.796C316.766 181.556 316.434 181.192 316.202 180.704C315.978 180.216 315.866 179.596 315.866 178.844C315.866 178.084 315.978 177.464 316.202 176.984C316.434 176.496 316.766 176.136 317.198 175.904C317.638 175.664 318.178 175.544 318.818 175.544C319.458 175.544 319.994 175.664 320.426 175.904C320.866 176.136 321.198 176.496 321.422 176.984C321.646 177.464 321.758 178.084 321.758 178.844C321.758 179.596 321.646 180.216 321.422 180.704C321.198 181.192 320.866 181.556 320.426 181.796C319.994 182.028 319.458 182.144 318.818 182.144ZM318.818 181.256C319.226 181.256 319.566 181.176 319.838 181.016C320.11 180.856 320.314 180.608 320.45 180.272C320.594 179.928 320.666 179.496 320.666 178.976V178.712C320.666 178.184 320.594 177.752 320.45 177.416C320.314 177.08 320.11 176.832 319.838 176.672C319.566 176.512 319.226 176.432 318.818 176.432C318.41 176.432 318.066 176.512 317.786 176.672C317.514 176.832 317.31 177.08 317.174 177.416C317.038 177.752 316.97 178.184 316.97 178.712V178.976C316.97 179.496 317.038 179.928 317.174 180.272C317.31 180.608 317.514 180.856 317.786 181.016C318.066 181.176 318.41 181.256 318.818 181.256ZM323.546 182V181.1H325.622V175.4H323.534V174.728C323.83 174.704 324.134 174.66 324.446 174.596C324.766 174.532 325.078 174.432 325.382 174.296C325.686 174.152 325.962 173.968 326.21 173.744H326.69V181.1H328.646V182H323.546Z" fill="#484543"/>
<path d="M37.6667 210.667H32.3333V201.333H37.6667M38 200H32C31.7348 200 31.4804 200.105 31.2929 200.293C31.1054 200.48 31 200.735 31 201V211C31 211.265 31.1054 211.52 31.2929 211.707C31.4804 211.895 31.7348 212 32 212H38C38.2652 212 38.5196 211.895 38.7071 211.707C38.8946 211.52 39 211.265 39 211V201C39 200.735 38.8946 200.48 38.7071 200.293C38.5196 200.105 38.2652 200 38 200ZM39.6667 209.333H41V202.667H39.6667M41.6667 204V208H43V204M29 209.333H30.3333V202.667H29M27 208H28.3333V204H27V208Z" fill="#484543"/>
<path d="M57.192 210L54.12 201.768H55.356L57.468 207.6C57.516 207.712 57.564 207.84 57.612 207.984C57.66 208.128 57.708 208.268 57.756 208.404C57.804 208.54 57.848 208.66 57.888 208.764H57.96C57.992 208.668 58.032 208.552 58.08 208.416C58.128 208.28 58.176 208.144 58.224 208.008C58.272 207.864 58.32 207.728 58.368 207.6L60.456 201.768H61.656L58.572 210H57.192ZM62.3693 202.5V201.324H63.4253V202.5H62.3693ZM62.3693 210V203.688H63.4253V210H62.3693ZM67.8246 210.144C67.4006 210.144 67.0206 210.06 66.6846 209.892C66.3486 209.716 66.0726 209.452 65.8566 209.1H65.7726L65.6646 210H64.8246V201.324H65.8806V204.48H65.9526C66.0966 204.256 66.2646 204.076 66.4566 203.94C66.6486 203.804 66.8646 203.704 67.1046 203.64C67.3446 203.576 67.6006 203.544 67.8726 203.544C68.3606 203.544 68.7886 203.66 69.1566 203.892C69.5246 204.124 69.8086 204.48 70.0086 204.96C70.2166 205.44 70.3206 206.052 70.3206 206.796C70.3206 207.58 70.2206 208.22 70.0206 208.716C69.8206 209.204 69.5366 209.564 69.1686 209.796C68.8006 210.028 68.3526 210.144 67.8246 210.144ZM67.5726 209.22C67.9326 209.22 68.2326 209.148 68.4726 209.004C68.7206 208.86 68.9086 208.624 69.0366 208.296C69.1646 207.96 69.2286 207.52 69.2286 206.976V206.724C69.2286 206.196 69.1686 205.768 69.0486 205.44C68.9286 205.104 68.7446 204.86 68.4966 204.708C68.2486 204.548 67.9286 204.468 67.5366 204.468C67.3126 204.468 67.1006 204.504 66.9006 204.576C66.7006 204.648 66.5206 204.772 66.3606 204.948C66.2086 205.124 66.0886 205.36 66.0006 205.656C65.9206 205.952 65.8806 206.316 65.8806 206.748V206.94C65.8806 207.436 65.9366 207.852 66.0486 208.188C66.1686 208.524 66.3526 208.78 66.6006 208.956C66.8566 209.132 67.1806 209.22 67.5726 209.22ZM71.3932 210V203.688H72.2452L72.3412 204.732H72.4252C72.4892 204.532 72.5772 204.344 72.6892 204.168C72.8012 203.984 72.9532 203.836 73.1452 203.724C73.3372 203.604 73.5732 203.544 73.8532 203.544C73.9732 203.544 74.0812 203.556 74.1772 203.58C74.2812 203.596 74.3572 203.616 74.4052 203.64V204.612H74.0092C73.7372 204.612 73.5012 204.66 73.3012 204.756C73.1092 204.844 72.9492 204.972 72.8212 205.14C72.6932 205.308 72.5972 205.508 72.5332 205.74C72.4772 205.972 72.4492 206.22 72.4492 206.484V210H71.3932ZM76.6043 210.144C76.3723 210.144 76.1403 210.116 75.9083 210.06C75.6763 210.004 75.4603 209.912 75.2603 209.784C75.0603 209.656 74.9003 209.48 74.7803 209.256C74.6603 209.024 74.6003 208.736 74.6003 208.392C74.6003 207.96 74.7043 207.604 74.9123 207.324C75.1203 207.044 75.4083 206.828 75.7763 206.676C76.1523 206.516 76.5963 206.408 77.1083 206.352C77.6203 206.288 78.1763 206.256 78.7763 206.256V205.536C78.7763 205.304 78.7363 205.104 78.6563 204.936C78.5763 204.768 78.4323 204.64 78.2243 204.552C78.0243 204.456 77.7363 204.408 77.3603 204.408C77.0003 204.408 76.7123 204.456 76.4963 204.552C76.2883 204.64 76.1403 204.756 76.0523 204.9C75.9723 205.044 75.9323 205.204 75.9323 205.38V205.56H74.9123C74.9043 205.52 74.9003 205.48 74.9003 205.44C74.9003 205.4 74.9003 205.352 74.9003 205.296C74.9003 204.912 75.0043 204.592 75.2123 204.336C75.4283 204.072 75.7283 203.876 76.1123 203.748C76.4963 203.612 76.9363 203.544 77.4323 203.544C77.9603 203.544 78.4003 203.62 78.7523 203.772C79.1123 203.924 79.3803 204.14 79.5563 204.42C79.7403 204.7 79.8323 205.036 79.8323 205.428V208.848C79.8323 209 79.8683 209.108 79.9403 209.172C80.0123 209.228 80.1003 209.256 80.2043 209.256H80.6723V209.952C80.5603 210 80.4363 210.04 80.3003 210.072C80.1643 210.112 80.0083 210.132 79.8323 210.132C79.6243 210.132 79.4523 210.088 79.3163 210C79.1803 209.92 79.0763 209.808 79.0043 209.664C78.9323 209.512 78.8843 209.344 78.8603 209.16H78.7763C78.6323 209.36 78.4483 209.536 78.2243 209.688C78.0083 209.832 77.7643 209.944 77.4923 210.024C77.2203 210.104 76.9243 210.144 76.6043 210.144ZM76.8683 209.256C77.1243 209.256 77.3643 209.216 77.5883 209.136C77.8203 209.056 78.0243 208.944 78.2003 208.8C78.3763 208.648 78.5163 208.468 78.6203 208.26C78.7243 208.052 78.7763 207.824 78.7763 207.576V207.048C78.1283 207.048 77.5763 207.084 77.1203 207.156C76.6643 207.228 76.3123 207.356 76.0643 207.54C75.8243 207.724 75.7043 207.984 75.7043 208.32C75.7043 208.536 75.7523 208.712 75.8483 208.848C75.9443 208.984 76.0803 209.088 76.2563 209.16C76.4323 209.224 76.6363 209.256 76.8683 209.256ZM83.7194 210.144C83.1114 210.144 82.5994 210.028 82.1834 209.796C81.7754 209.556 81.4634 209.192 81.2474 208.704C81.0394 208.208 80.9354 207.588 80.9354 206.844C80.9354 206.1 81.0394 205.484 81.2474 204.996C81.4634 204.508 81.7794 204.144 82.1954 203.904C82.6194 203.664 83.1394 203.544 83.7554 203.544C84.1874 203.544 84.5594 203.6 84.8714 203.712C85.1914 203.824 85.4554 203.988 85.6634 204.204C85.8714 204.42 86.0234 204.68 86.1194 204.984C86.2234 205.288 86.2754 205.636 86.2754 206.028H85.2074C85.2074 205.66 85.1554 205.36 85.0514 205.128C84.9554 204.888 84.7994 204.712 84.5834 204.6C84.3674 204.48 84.0834 204.42 83.7314 204.42C83.3794 204.42 83.0754 204.5 82.8194 204.66C82.5634 204.812 82.3674 205.056 82.2314 205.392C82.0954 205.728 82.0274 206.172 82.0274 206.724V206.976C82.0274 207.496 82.0914 207.928 82.2194 208.272C82.3554 208.616 82.5514 208.868 82.8074 209.028C83.0634 209.188 83.3754 209.268 83.7434 209.268C84.1034 209.268 84.3914 209.204 84.6074 209.076C84.8314 208.948 84.9914 208.764 85.0874 208.524C85.1914 208.284 85.2434 207.996 85.2434 207.66H86.2754C86.2754 208.012 86.2234 208.34 86.1194 208.644C86.0234 208.948 85.8714 209.212 85.6634 209.436C85.4554 209.66 85.1914 209.836 84.8714 209.964C84.5514 210.084 84.1674 210.144 83.7194 210.144ZM87.3021 202.5V201.324H88.3581V202.5H87.3021ZM87.3021 210V203.688H88.3581V210H87.3021ZM92.3494 210.144C91.7094 210.144 91.1694 210.028 90.7294 209.796C90.2974 209.556 89.9654 209.192 89.7334 208.704C89.5094 208.216 89.3974 207.596 89.3974 206.844C89.3974 206.084 89.5094 205.464 89.7334 204.984C89.9654 204.496 90.2974 204.136 90.7294 203.904C91.1694 203.664 91.7094 203.544 92.3494 203.544C92.9894 203.544 93.5254 203.664 93.9574 203.904C94.3974 204.136 94.7294 204.496 94.9534 204.984C95.1774 205.464 95.2894 206.084 95.2894 206.844C95.2894 207.596 95.1774 208.216 94.9534 208.704C94.7294 209.192 94.3974 209.556 93.9574 209.796C93.5254 210.028 92.9894 210.144 92.3494 210.144ZM92.3494 209.256C92.7574 209.256 93.0974 209.176 93.3694 209.016C93.6414 208.856 93.8454 208.608 93.9814 208.272C94.1254 207.928 94.1974 207.496 94.1974 206.976V206.712C94.1974 206.184 94.1254 205.752 93.9814 205.416C93.8454 205.08 93.6414 204.832 93.3694 204.672C93.0974 204.512 92.7574 204.432 92.3494 204.432C91.9414 204.432 91.5974 204.512 91.3174 204.672C91.0454 204.832 90.8414 205.08 90.7054 205.416C90.5694 205.752 90.5014 206.184 90.5014 206.712V206.976C90.5014 207.496 90.5694 207.928 90.7054 208.272C90.8414 208.608 91.0454 208.856 91.3174 209.016C91.5974 209.176 91.9414 209.256 92.3494 209.256ZM91.7254 202.908L92.7574 201.324H93.9574L93.9694 201.36L92.6374 202.908H91.7254ZM96.3611 210V203.688H97.2131L97.3091 204.636H97.3931C97.5611 204.38 97.7491 204.172 97.9571 204.012C98.1731 203.852 98.4091 203.736 98.6651 203.664C98.9291 203.584 99.2091 203.544 99.5051 203.544C99.9051 203.544 100.253 203.612 100.549 203.748C100.853 203.884 101.089 204.104 101.257 204.408C101.433 204.712 101.521 205.124 101.521 205.644V210H100.465V205.788C100.465 205.524 100.429 205.308 100.357 205.14C100.293 204.972 100.201 204.84 100.081 204.744C99.9691 204.648 99.8291 204.58 99.6611 204.54C99.5011 204.5 99.3211 204.48 99.1211 204.48C98.8251 204.48 98.5451 204.552 98.2811 204.696C98.0171 204.84 97.8051 205.048 97.6451 205.32C97.4931 205.592 97.4171 205.916 97.4171 206.292V210H96.3611Z" fill="#484543"/>
<rect x="316.5" y="198.5" width="15" height="15" rx="7.5" stroke="#6D6967"/>
<path d="M31.6666 240C31.3 240 30.986 239.869 30.7246 239.608C30.4633 239.347 30.3328 239.033 30.3333 238.667V230H29.6666V228.667H33V228H37V228.667H40.3333V230H39.6666V238.667C39.6666 239.033 39.536 239.347 39.2746 239.609C39.0133 239.87 38.6995 240 38.3333 240H31.6666ZM38.3333 230H31.6666V238.667H38.3333V230ZM33 237.333H34.3333V231.333H33V237.333ZM35.6666 237.333H37V231.333H35.6666V237.333Z" fill="#484543"/>
<path d="M55.032 238V229.768H61.368V230.752H56.172V233.296H60.84V234.28H56.172V237.016H61.44V238H55.032ZM62.7091 238V229.324H63.7651V238H62.7091ZM65.1644 230.5V229.324H66.2204V230.5H65.1644ZM65.1644 238V231.688H66.2204V238H65.1644ZM67.6197 238V231.688H68.4717L68.5677 232.636H68.6517C68.8117 232.38 68.9917 232.172 69.1917 232.012C69.3917 231.852 69.6117 231.736 69.8517 231.664C70.0917 231.584 70.3517 231.544 70.6317 231.544C71.0397 231.544 71.3917 231.628 71.6877 231.796C71.9837 231.956 72.2037 232.236 72.3477 232.636H72.4197C72.5717 232.38 72.7477 232.176 72.9477 232.024C73.1477 231.864 73.3717 231.744 73.6197 231.664C73.8677 231.584 74.1317 231.544 74.4117 231.544C74.7957 231.544 75.1317 231.612 75.4197 231.748C75.7077 231.876 75.9317 232.092 76.0917 232.396C76.2597 232.692 76.3437 233.092 76.3437 233.596V238H75.2877V233.764C75.2877 233.508 75.2557 233.296 75.1917 233.128C75.1357 232.96 75.0517 232.832 74.9397 232.744C74.8277 232.648 74.6957 232.58 74.5437 232.54C74.3997 232.5 74.2437 232.48 74.0757 232.48C73.7957 232.48 73.5357 232.552 73.2957 232.696C73.0637 232.84 72.8757 233.048 72.7317 233.32C72.5877 233.592 72.5157 233.916 72.5157 234.292V238H71.4597V233.764C71.4597 233.508 71.4277 233.296 71.3637 233.128C71.2997 232.96 71.2157 232.832 71.1117 232.744C71.0077 232.648 70.8797 232.58 70.7277 232.54C70.5837 232.5 70.4317 232.48 70.2717 232.48C69.9837 232.48 69.7157 232.552 69.4677 232.696C69.2277 232.84 69.0357 233.048 68.8917 233.32C68.7477 233.592 68.6757 233.916 68.6757 234.292V238H67.6197ZM77.7039 230.5V229.324H78.7599V230.5H77.7039ZM77.7039 238V231.688H78.7599V238H77.7039ZM80.1592 238V231.688H81.0112L81.1072 232.636H81.1912C81.3592 232.38 81.5472 232.172 81.7552 232.012C81.9712 231.852 82.2072 231.736 82.4632 231.664C82.7272 231.584 83.0072 231.544 83.3032 231.544C83.7032 231.544 84.0512 231.612 84.3472 231.748C84.6512 231.884 84.8872 232.104 85.0552 232.408C85.2312 232.712 85.3192 233.124 85.3192 233.644V238H84.2632V233.788C84.2632 233.524 84.2272 233.308 84.1552 233.14C84.0912 232.972 83.9992 232.84 83.8792 232.744C83.7672 232.648 83.6272 232.58 83.4592 232.54C83.2992 232.5 83.1192 232.48 82.9192 232.48C82.6232 232.48 82.3432 232.552 82.0792 232.696C81.8152 232.84 81.6032 233.048 81.4432 233.32C81.2912 233.592 81.2152 233.916 81.2152 234.292V238H80.1592ZM88.265 238.144C88.033 238.144 87.801 238.116 87.569 238.06C87.337 238.004 87.121 237.912 86.921 237.784C86.721 237.656 86.561 237.48 86.441 237.256C86.321 237.024 86.261 236.736 86.261 236.392C86.261 235.96 86.365 235.604 86.573 235.324C86.781 235.044 87.069 234.828 87.437 234.676C87.813 234.516 88.257 234.408 88.769 234.352C89.281 234.288 89.837 234.256 90.437 234.256V233.536C90.437 233.304 90.397 233.104 90.317 232.936C90.237 232.768 90.093 232.64 89.885 232.552C89.685 232.456 89.397 232.408 89.021 232.408C88.661 232.408 88.373 232.456 88.157 232.552C87.949 232.64 87.801 232.756 87.713 232.9C87.633 233.044 87.593 233.204 87.593 233.38V233.56H86.573C86.565 233.52 86.561 233.48 86.561 233.44C86.561 233.4 86.561 233.352 86.561 233.296C86.561 232.912 86.665 232.592 86.873 232.336C87.089 232.072 87.389 231.876 87.773 231.748C88.157 231.612 88.597 231.544 89.093 231.544C89.621 231.544 90.061 231.62 90.413 231.772C90.773 231.924 91.041 232.14 91.217 232.42C91.401 232.7 91.493 233.036 91.493 233.428V236.848C91.493 237 91.529 237.108 91.601 237.172C91.673 237.228 91.761 237.256 91.865 237.256H92.333V237.952C92.221 238 92.097 238.04 91.961 238.072C91.825 238.112 91.669 238.132 91.493 238.132C91.285 238.132 91.113 238.088 90.977 238C90.841 237.92 90.737 237.808 90.665 237.664C90.593 237.512 90.545 237.344 90.521 237.16H90.437C90.293 237.36 90.109 237.536 89.885 237.688C89.669 237.832 89.425 237.944 89.153 238.024C88.881 238.104 88.585 238.144 88.265 238.144ZM88.529 237.256C88.785 237.256 89.025 237.216 89.249 237.136C89.481 237.056 89.685 236.944 89.861 236.8C90.037 236.648 90.177 236.468 90.281 236.26C90.385 236.052 90.437 235.824 90.437 235.576V235.048C89.789 235.048 89.237 235.084 88.781 235.156C88.325 235.228 87.973 235.356 87.725 235.54C87.485 235.724 87.365 235.984 87.365 236.32C87.365 236.536 87.413 236.712 87.509 236.848C87.605 236.984 87.741 237.088 87.917 237.16C88.093 237.224 88.297 237.256 88.529 237.256ZM92.98 238V231.688H93.832L93.928 232.732H94.012C94.076 232.532 94.164 232.344 94.276 232.168C94.388 231.984 94.54 231.836 94.732 231.724C94.924 231.604 95.16 231.544 95.44 231.544C95.56 231.544 95.668 231.556 95.764 231.58C95.868 231.596 95.944 231.616 95.992 231.64V232.612H95.596C95.324 232.612 95.088 232.66 94.888 232.756C94.696 232.844 94.536 232.972 94.408 233.14C94.28 233.308 94.184 233.508 94.12 233.74C94.064 233.972 94.036 234.22 94.036 234.484V238H92.98Z" fill="#484543"/>
</g>
<defs>
<filter id="filter0_ddddd_53453_2589" x="0" y="0" width="350" height="322" filterUnits="userSpaceOnUse" color-interpolation-filters="sRGB">
<feFlood flood-opacity="0" result="BackgroundImageFix"/>
<feColorMatrix in="SourceAlpha" type="matrix" values="0 0 0 0 0 0 0 0 0 0 0 0 0 0 0 0 0 0 127 0" result="hardAlpha"/>
<feOffset/>
<feColorMatrix type="matrix" values="0 0 0 0 0 0 0 0 0 0 0 0 0 0 0 0 0 0 0.1 0"/>
<feBlend mode="normal" in2="BackgroundImageFix" result="effect1_dropShadow_53453_2589"/>
<feColorMatrix in="SourceAlpha" type="matrix" values="0 0 0 0 0 0 0 0 0 0 0 0 0 0 0 0 0 0 127 0" result="hardAlpha"/>
<feOffset dy="2"/>
<feGaussianBlur stdDeviation="2"/>
<feColorMatrix type="matrix" values="0 0 0 0 0 0 0 0 0 0 0 0 0 0 0 0 0 0 0.1 0"/>
<feBlend mode="normal" in2="effect1_dropShadow_53453_2589" result="effect2_dropShadow_53453_2589"/>
<feColorMatrix in="SourceAlpha" type="matrix" values="0 0 0 0 0 0 0 0 0 0 0 0 0 0 0 0 0 0 127 0" result="hardAlpha"/>
<feOffset dy="7"/>
<feGaussianBlur stdDeviation="3.5"/>
<feColorMatrix type="matrix" values="0 0 0 0 0 0 0 0 0 0 0 0 0 0 0 0 0 0 0.09 0"/>
<feBlend mode="normal" in2="effect2_dropShadow_53453_2589" result="effect3_dropShadow_53453_2589"/>
<feColorMatrix in="SourceAlpha" type="matrix" values="0 0 0 0 0 0 0 0 0 0 0 0 0 0 0 0 0 0 127 0" result="hardAlpha"/>
<feOffset dy="16"/>
<feGaussianBlur stdDeviation="5"/>
<feColorMatrix type="matrix" values="0 0 0 0 0 0 0 0 0 0 0 0 0 0 0 0 0 0 0.05 0"/>
<feBlend mode="normal" in2="effect3_dropShadow_53453_2589" result="effect4_dropShadow_53453_2589"/>
<feColorMatrix in="SourceAlpha" type="matrix" values="0 0 0 0 0 0 0 0 0 0 0 0 0 0 0 0 0 0 127 0" result="hardAlpha"/>
<feOffset dy="29"/>
<feGaussianBlur stdDeviation="5.5"/>
<feColorMatrix type="matrix" values="0 0 0 0 0 0 0 0 0 0 0 0 0 0 0 0 0 0 0.01 0"/>
<feBlend mode="normal" in2="effect4_dropShadow_53453_2589" result="effect5_dropShadow_53453_2589"/>
<feBlend mode="normal" in="SourceGraphic" in2="effect5_dropShadow_53453_2589" result="shape"/>
</filter>
<linearGradient id="paint0_linear_53453_2589" x1="175" y1="282" x2="175" y2="2" gradientUnits="userSpaceOnUse">
<stop stop-color="#E6EDF0" stop-opacity="0.4"/>
<stop offset="1" stop-color="#969FA2"/>
</linearGradient>
</defs>
</svg>
