<svg width="48" height="46" viewBox="0 0 48 46" fill="none" xmlns="http://www.w3.org/2000/svg">
<rect x="0.222412" width="47.7778" height="46" rx="6" fill="#E6E0E9"/>
<path fill-rule="evenodd" clip-rule="evenodd" d="M19.6588 14H33.3003C34.8599 14 36.1113 15.2312 36.1113 16.7368V29.2632C36.1113 30.7688 34.8599 32 33.3003 32H19.6588C18.7109 32 17.9034 31.536 17.375 30.7706L12.1113 22.9955L17.3799 15.2133C17.9018 14.4573 18.7105 14 19.6588 14ZM34.1281 16.7366C34.1281 16.2649 33.7516 15.8945 33.3014 15.8945H19.6598C19.4112 15.8945 19.2077 16.0096 19.0425 16.2489L14.4751 22.9953L14.127 22.481V23.5096L14.4751 22.9953L19.0376 29.7346C19.2116 29.9866 19.4176 30.105 19.6598 30.105H33.3014C33.7516 30.105 34.1281 29.7346 34.1281 29.2629V16.7366Z" fill="#49454F"/>
<path fill-rule="evenodd" clip-rule="evenodd" d="M30.6578 26.0128L29.3457 27.2639L26.0213 24.0941L22.6969 27.2639L21.3848 26.0128L24.7092 22.8429L21.3848 19.673L22.6969 18.4219L26.0213 21.5918L29.3457 18.4219L30.6578 19.673L27.3334 22.8429L30.6578 26.0128Z" fill="#49454F"/>
</svg>
