<svg width="330" height="56" viewBox="0 0 330 56" fill="none" xmlns="http://www.w3.org/2000/svg">
<rect width="330" height="56" rx="20" fill="#EAEAEA"/>
<mask id="mask0_54910_2574" style="mask-type:alpha" maskUnits="userSpaceOnUse" x="0" y="0" width="165" height="56">
<rect width="165" height="56" rx="20" fill="#EAEAEA"/>
</mask>
<g mask="url(#mask0_54910_2574)">
<path d="M41.376 31V20.024H42.896V31H41.376ZM45.5196 31V22.584H46.6556L46.7836 23.848H46.8956C47.1196 23.5067 47.3703 23.2293 47.6476 23.016C47.9356 22.8027 48.2503 22.648 48.5916 22.552C48.9436 22.4453 49.317 22.392 49.7116 22.392C50.245 22.392 50.709 22.4827 51.1036 22.664C51.509 22.8453 51.8236 23.1387 52.0476 23.544C52.2823 23.9493 52.3996 24.4987 52.3996 25.192V31H50.9916V25.384C50.9916 25.032 50.9436 24.744 50.8476 24.52C50.7623 24.296 50.6396 24.12 50.4796 23.992C50.3303 23.864 50.1436 23.7733 49.9196 23.72C49.7063 23.6667 49.4663 23.64 49.1996 23.64C48.805 23.64 48.4316 23.736 48.0796 23.928C47.7276 24.12 47.445 24.3973 47.2316 24.76C47.029 25.1227 46.9276 25.5547 46.9276 26.056V31H45.5196ZM56.1093 33.912C55.7039 33.912 55.3306 33.8267 54.9893 33.656C54.6479 33.496 54.3759 33.2613 54.1733 32.952C53.9706 32.6427 53.8693 32.2747 53.8693 31.848C53.8693 31.3787 53.9973 30.9893 54.2533 30.68C54.5199 30.3707 54.8346 30.1413 55.1973 29.992C54.9306 29.864 54.7226 29.688 54.5733 29.464C54.4239 29.2293 54.3493 28.9733 54.3493 28.696C54.3493 28.3227 54.4826 28.008 54.7493 27.752C55.0266 27.496 55.3626 27.3253 55.7573 27.24C55.3946 27.0053 55.1066 26.7067 54.8933 26.344C54.6906 25.9707 54.5893 25.56 54.5893 25.112C54.5893 24.5787 54.7119 24.1093 54.9573 23.704C55.2133 23.2987 55.5973 22.9787 56.1093 22.744C56.6319 22.5093 57.2666 22.392 58.0133 22.392C58.3546 22.392 58.6746 22.4187 58.9733 22.472C59.2719 22.5147 59.5386 22.5893 59.7733 22.696C60.1466 22.5253 60.4239 22.3067 60.6053 22.04C60.7973 21.7733 60.9146 21.5013 60.9573 21.224H62.3493C62.3493 21.544 62.2746 21.848 62.1253 22.136C61.9866 22.4133 61.7946 22.648 61.5493 22.84C61.3039 23.0213 61.0053 23.144 60.6533 23.208C60.9199 23.464 61.1173 23.752 61.2453 24.072C61.3839 24.392 61.4533 24.7387 61.4533 25.112C61.4533 25.6453 61.3253 26.12 61.0693 26.536C60.8239 26.9413 60.4506 27.2613 59.9493 27.496C59.4479 27.7307 58.8186 27.848 58.0613 27.848H56.7493C56.4613 27.848 56.2266 27.9067 56.0453 28.024C55.8639 28.1307 55.7733 28.3067 55.7733 28.552C55.7733 28.7653 55.8639 28.9413 56.0453 29.08C56.2266 29.208 56.4613 29.272 56.7493 29.272H60.1733C60.7919 29.272 61.2986 29.48 61.6933 29.896C62.0879 30.3013 62.2853 30.824 62.2853 31.464C62.2853 31.9227 62.1679 32.3333 61.9333 32.696C61.7093 33.0693 61.3893 33.3627 60.9733 33.576C60.5679 33.8 60.0933 33.912 59.5493 33.912H56.1093ZM56.5093 32.84H59.5333C59.7786 32.84 60.0026 32.7867 60.2053 32.68C60.4079 32.584 60.5679 32.4453 60.6853 32.264C60.8026 32.0827 60.8613 31.8853 60.8613 31.672C60.8613 31.3093 60.7546 31.0213 60.5413 30.808C60.3279 30.5947 60.0613 30.488 59.7413 30.488H56.5093C56.1679 30.488 55.8799 30.6053 55.6453 30.84C55.4106 31.064 55.2933 31.3413 55.2933 31.672C55.2933 32.024 55.4106 32.3067 55.6453 32.52C55.8799 32.7333 56.1679 32.84 56.5093 32.84ZM58.0293 26.792C58.7119 26.792 59.2186 26.6427 59.5493 26.344C59.8799 26.0453 60.0453 25.6347 60.0453 25.112C60.0453 24.6 59.8799 24.1947 59.5493 23.896C59.2186 23.5973 58.7119 23.448 58.0293 23.448C57.3466 23.448 56.8346 23.5973 56.4933 23.896C56.1626 24.1947 55.9973 24.6 55.9973 25.112C55.9973 25.4427 56.0719 25.736 56.2213 25.992C56.3706 26.248 56.5946 26.4453 56.8933 26.584C57.1919 26.7227 57.5706 26.792 58.0293 26.792ZM63.7259 31V22.584H64.8619L64.9899 23.976H65.1019C65.1872 23.7093 65.3045 23.4587 65.4539 23.224C65.6032 22.9787 65.8059 22.7813 66.0619 22.632C66.3179 22.472 66.6325 22.392 67.0059 22.392C67.1659 22.392 67.3099 22.408 67.4379 22.44C67.5765 22.4613 67.6779 22.488 67.7419 22.52V23.816H67.2139C66.8512 23.816 66.5365 23.88 66.2699 24.008C66.0139 24.1253 65.8005 24.296 65.6299 24.52C65.4592 24.744 65.3312 25.0107 65.2459 25.32C65.1712 25.6293 65.1339 25.96 65.1339 26.312V31H63.7259ZM72.3921 31.192C71.5601 31.192 70.8561 31.0373 70.2801 30.728C69.7148 30.408 69.2828 29.9227 68.9841 29.272C68.6961 28.6213 68.5521 27.7947 68.5521 26.792C68.5521 25.7787 68.6961 24.952 68.9841 24.312C69.2828 23.6613 69.7201 23.1813 70.2961 22.872C70.8721 22.552 71.5921 22.392 72.4561 22.392C73.2455 22.392 73.9068 22.5467 74.4401 22.856C74.9735 23.1547 75.3735 23.608 75.6401 24.216C75.9175 24.8133 76.0561 25.5653 76.0561 26.472V27.144H70.0081C70.0295 27.816 70.1255 28.3707 70.2961 28.808C70.4775 29.2347 70.7441 29.5493 71.0961 29.752C71.4481 29.944 71.8908 30.04 72.4241 30.04C72.7868 30.04 73.1015 29.9973 73.3681 29.912C73.6455 29.816 73.8748 29.6827 74.0561 29.512C74.2481 29.3413 74.3921 29.1387 74.4881 28.904C74.5841 28.6693 74.6375 28.4133 74.6481 28.136H76.0241C76.0135 28.584 75.9281 29 75.7681 29.384C75.6081 29.7573 75.3735 30.0773 75.0641 30.344C74.7548 30.6107 74.3761 30.8187 73.9281 30.968C73.4801 31.1173 72.9681 31.192 72.3921 31.192ZM70.0401 26.088H74.6001C74.6001 25.6187 74.5468 25.224 74.4401 24.904C74.3335 24.584 74.1788 24.3227 73.9761 24.12C73.7841 23.9173 73.5548 23.7733 73.2881 23.688C73.0321 23.592 72.7388 23.544 72.4081 23.544C71.9175 23.544 71.5015 23.6347 71.1601 23.816C70.8188 23.9973 70.5575 24.2747 70.3761 24.648C70.1948 25.0213 70.0828 25.5013 70.0401 26.088ZM80.8918 31.192C80.3158 31.192 79.8091 31.1333 79.3718 31.016C78.9344 30.8987 78.5718 30.728 78.2838 30.504C77.9958 30.28 77.7771 30.0133 77.6278 29.704C77.4784 29.3947 77.4038 29.0427 77.4038 28.648C77.4038 28.5947 77.4038 28.5467 77.4038 28.504C77.4038 28.4507 77.4091 28.408 77.4198 28.376H78.8118C78.8011 28.4187 78.7958 28.456 78.7958 28.488C78.7958 28.52 78.7958 28.552 78.7958 28.584C78.8064 28.9573 78.9024 29.2507 79.0838 29.464C79.2758 29.6773 79.5371 29.8267 79.8678 29.912C80.1984 29.9973 80.5664 30.04 80.9718 30.04C81.3238 30.04 81.6491 29.9973 81.9478 29.912C82.2464 29.816 82.4811 29.6773 82.6518 29.496C82.8331 29.304 82.9238 29.064 82.9238 28.776C82.9238 28.424 82.8064 28.1573 82.5718 27.976C82.3478 27.784 82.0491 27.6347 81.6758 27.528C81.3024 27.4213 80.9131 27.3093 80.5078 27.192C80.1664 27.096 79.8251 26.9893 79.4838 26.872C79.1424 26.7547 78.8331 26.6107 78.5558 26.44C78.2891 26.2693 78.0704 26.0507 77.8997 25.784C77.7398 25.5067 77.6598 25.16 77.6598 24.744C77.6598 24.3707 77.7344 24.04 77.8838 23.752C78.0438 23.464 78.2678 23.2187 78.5558 23.016C78.8438 22.8133 79.1904 22.664 79.5958 22.568C80.0118 22.4613 80.4704 22.408 80.9718 22.408C81.5051 22.408 81.9691 22.4667 82.3638 22.584C82.7691 22.7013 83.1051 22.8667 83.3718 23.08C83.6384 23.2933 83.8358 23.5387 83.9638 23.816C84.0918 24.0827 84.1558 24.3707 84.1558 24.68C84.1558 24.744 84.1558 24.808 84.1558 24.872C84.1558 24.9253 84.1504 24.968 84.1398 25H82.7638V24.824C82.7638 24.6107 82.7051 24.408 82.5878 24.216C82.4811 24.0133 82.2891 23.8533 82.0118 23.736C81.7451 23.608 81.3718 23.544 80.8918 23.544C80.5824 23.544 80.3158 23.5707 80.0918 23.624C79.8678 23.6667 79.6811 23.7413 79.5318 23.848C79.3824 23.944 79.2704 24.0613 79.1957 24.2C79.1211 24.328 79.0838 24.4773 79.0838 24.648C79.0838 24.9253 79.1744 25.1387 79.3558 25.288C79.5371 25.4373 79.7771 25.56 80.0758 25.656C80.3851 25.752 80.7158 25.8587 81.0677 25.976C81.4411 26.0827 81.8198 26.1947 82.2038 26.312C82.5984 26.4187 82.9558 26.5573 83.2758 26.728C83.6064 26.8987 83.8678 27.1333 84.0598 27.432C84.2624 27.72 84.3638 28.104 84.3638 28.584C84.3638 29.032 84.2784 29.4213 84.1078 29.752C83.9371 30.0827 83.6918 30.3547 83.3718 30.568C83.0624 30.7813 82.6944 30.936 82.2678 31.032C81.8518 31.1387 81.3931 31.192 80.8918 31.192ZM89.614 31.192C88.782 31.192 88.078 31.0373 87.502 30.728C86.9367 30.408 86.5047 29.9227 86.206 29.272C85.918 28.6213 85.774 27.7947 85.774 26.792C85.774 25.7787 85.918 24.952 86.206 24.312C86.5047 23.6613 86.942 23.1813 87.518 22.872C88.094 22.552 88.814 22.392 89.678 22.392C90.4673 22.392 91.1287 22.5467 91.662 22.856C92.1953 23.1547 92.5953 23.608 92.862 24.216C93.1393 24.8133 93.278 25.5653 93.278 26.472V27.144H87.23C87.2513 27.816 87.3473 28.3707 87.518 28.808C87.6993 29.2347 87.966 29.5493 88.318 29.752C88.67 29.944 89.1127 30.04 89.646 30.04C90.0087 30.04 90.3233 29.9973 90.59 29.912C90.8673 29.816 91.0967 29.6827 91.278 29.512C91.47 29.3413 91.614 29.1387 91.71 28.904C91.806 28.6693 91.8593 28.4133 91.87 28.136H93.246C93.2353 28.584 93.15 29 92.99 29.384C92.83 29.7573 92.5953 30.0773 92.286 30.344C91.9767 30.6107 91.598 30.8187 91.15 30.968C90.702 31.1173 90.19 31.192 89.614 31.192ZM87.262 26.088H91.822C91.822 25.6187 91.7687 25.224 91.662 24.904C91.5553 24.584 91.4007 24.3227 91.198 24.12C91.006 23.9173 90.7767 23.7733 90.51 23.688C90.254 23.592 89.9607 23.544 89.63 23.544C89.1393 23.544 88.7233 23.6347 88.382 23.816C88.0407 23.9973 87.7793 24.2747 87.598 24.648C87.4167 25.0213 87.3047 25.5013 87.262 26.088ZM102.023 31.192C101.191 31.192 100.487 31.0373 99.9114 30.728C99.346 30.408 98.914 29.9227 98.6154 29.272C98.3274 28.6213 98.1834 27.7947 98.1834 26.792C98.1834 25.7787 98.3274 24.952 98.6154 24.312C98.914 23.6613 99.3514 23.1813 99.9274 22.872C100.503 22.552 101.223 22.392 102.087 22.392C102.877 22.392 103.538 22.5467 104.071 22.856C104.605 23.1547 105.005 23.608 105.271 24.216C105.549 24.8133 105.687 25.5653 105.687 26.472V27.144H99.6394C99.6607 27.816 99.7567 28.3707 99.9274 28.808C100.109 29.2347 100.375 29.5493 100.727 29.752C101.079 29.944 101.522 30.04 102.055 30.04C102.418 30.04 102.733 29.9973 102.999 29.912C103.277 29.816 103.506 29.6827 103.687 29.512C103.879 29.3413 104.023 29.1387 104.119 28.904C104.215 28.6693 104.269 28.4133 104.279 28.136H105.655C105.645 28.584 105.559 29 105.399 29.384C105.239 29.7573 105.005 30.0773 104.695 30.344C104.386 30.6107 104.007 30.8187 103.559 30.968C103.111 31.1173 102.599 31.192 102.023 31.192ZM99.6714 26.088H104.231C104.231 25.6187 104.178 25.224 104.071 24.904C103.965 24.584 103.81 24.3227 103.607 24.12C103.415 23.9173 103.186 23.7733 102.919 23.688C102.663 23.592 102.37 23.544 102.039 23.544C101.549 23.544 101.133 23.6347 100.791 23.816C100.45 23.9973 100.189 24.2747 100.007 24.648C99.826 25.0213 99.714 25.5013 99.6714 26.088ZM107.579 31V19.432H108.987V31H107.579ZM118.177 31.192C117.345 31.192 116.641 31.0373 116.065 30.728C115.499 30.408 115.067 29.9227 114.769 29.272C114.481 28.6213 114.337 27.7947 114.337 26.792C114.337 25.7787 114.481 24.952 114.769 24.312C115.067 23.6613 115.505 23.1813 116.081 22.872C116.657 22.552 117.377 22.392 118.241 22.392C119.03 22.392 119.691 22.5467 120.225 22.856C120.758 23.1547 121.158 23.608 121.425 24.216C121.702 24.8133 121.841 25.5653 121.841 26.472V27.144H115.793C115.814 27.816 115.91 28.3707 116.081 28.808C116.262 29.2347 116.529 29.5493 116.881 29.752C117.233 29.944 117.675 30.04 118.209 30.04C118.571 30.04 118.886 29.9973 119.153 29.912C119.43 29.816 119.659 29.6827 119.841 29.512C120.033 29.3413 120.177 29.1387 120.273 28.904C120.369 28.6693 120.422 28.4133 120.433 28.136H121.809C121.798 28.584 121.713 29 121.553 29.384C121.393 29.7573 121.158 30.0773 120.849 30.344C120.539 30.6107 120.161 30.8187 119.713 30.968C119.265 31.1173 118.753 31.192 118.177 31.192ZM115.825 26.088H120.385C120.385 25.6187 120.331 25.224 120.225 24.904C120.118 24.584 119.963 24.3227 119.761 24.12C119.569 23.9173 119.339 23.7733 119.073 23.688C118.817 23.592 118.523 23.544 118.193 23.544C117.702 23.544 117.286 23.6347 116.945 23.816C116.603 23.9973 116.342 24.2747 116.161 24.648C115.979 25.0213 115.867 25.5013 115.825 26.088ZM123.732 31V22.584H124.868L124.996 23.848H125.108C125.321 23.5067 125.561 23.2293 125.828 23.016C126.095 22.8027 126.388 22.648 126.708 22.552C127.028 22.4453 127.375 22.392 127.748 22.392C128.292 22.392 128.761 22.504 129.156 22.728C129.551 22.9413 129.844 23.3147 130.036 23.848H130.132C130.335 23.5067 130.569 23.2347 130.836 23.032C131.103 22.8187 131.401 22.6587 131.732 22.552C132.063 22.4453 132.415 22.392 132.788 22.392C133.3 22.392 133.748 22.4827 134.132 22.664C134.516 22.8347 134.815 23.1227 135.028 23.528C135.252 23.9227 135.364 24.456 135.364 25.128V31H133.956V25.352C133.956 25.0107 133.913 24.728 133.828 24.504C133.753 24.28 133.641 24.1093 133.492 23.992C133.343 23.864 133.167 23.7733 132.964 23.72C132.772 23.6667 132.564 23.64 132.34 23.64C131.967 23.64 131.62 23.736 131.3 23.928C130.991 24.12 130.74 24.3973 130.548 24.76C130.356 25.1227 130.26 25.5547 130.26 26.056V31H128.852V25.352C128.852 25.0107 128.809 24.728 128.724 24.504C128.639 24.28 128.527 24.1093 128.388 23.992C128.249 23.864 128.079 23.7733 127.876 23.72C127.684 23.6667 127.481 23.64 127.268 23.64C126.884 23.64 126.527 23.736 126.196 23.928C125.876 24.12 125.62 24.3973 125.428 24.76C125.236 25.1227 125.14 25.5547 125.14 26.056V31H123.732ZM139.76 31.192C139.45 31.192 139.141 31.1547 138.832 31.08C138.522 31.0053 138.234 30.8827 137.968 30.712C137.701 30.5413 137.488 30.3067 137.328 30.008C137.168 29.6987 137.088 29.3147 137.088 28.856C137.088 28.28 137.226 27.8053 137.504 27.432C137.781 27.0587 138.165 26.7707 138.656 26.568C139.157 26.3547 139.749 26.2107 140.432 26.136C141.114 26.0507 141.856 26.008 142.656 26.008V25.048C142.656 24.7387 142.602 24.472 142.496 24.248C142.389 24.024 142.197 23.8533 141.92 23.736C141.653 23.608 141.269 23.544 140.768 23.544C140.288 23.544 139.904 23.608 139.616 23.736C139.338 23.8533 139.141 24.008 139.024 24.2C138.917 24.392 138.864 24.6053 138.864 24.84V25.08H137.504C137.493 25.0267 137.488 24.9733 137.488 24.92C137.488 24.8667 137.488 24.8027 137.488 24.728C137.488 24.216 137.626 23.7893 137.904 23.448C138.192 23.096 138.592 22.8347 139.104 22.664C139.616 22.4827 140.202 22.392 140.864 22.392C141.568 22.392 142.154 22.4933 142.624 22.696C143.104 22.8987 143.461 23.1867 143.696 23.56C143.941 23.9333 144.064 24.3813 144.064 24.904V29.464C144.064 29.6667 144.112 29.8107 144.208 29.896C144.304 29.9707 144.421 30.008 144.56 30.008H145.184V30.936C145.034 31 144.869 31.0533 144.688 31.096C144.506 31.1493 144.298 31.176 144.064 31.176C143.786 31.176 143.557 31.1173 143.376 31C143.194 30.8933 143.056 30.744 142.96 30.552C142.864 30.3493 142.8 30.1253 142.768 29.88H142.656C142.464 30.1467 142.218 30.3813 141.92 30.584C141.632 30.776 141.306 30.9253 140.944 31.032C140.581 31.1387 140.186 31.192 139.76 31.192ZM140.112 30.008C140.453 30.008 140.773 29.9547 141.072 29.848C141.381 29.7413 141.653 29.592 141.888 29.4C142.122 29.1973 142.309 28.9573 142.448 28.68C142.586 28.4027 142.656 28.0987 142.656 27.768V27.064C141.792 27.064 141.056 27.112 140.448 27.208C139.84 27.304 139.37 27.4747 139.04 27.72C138.72 27.9653 138.56 28.312 138.56 28.76C138.56 29.048 138.624 29.2827 138.752 29.464C138.88 29.6453 139.061 29.784 139.296 29.88C139.53 29.9653 139.802 30.008 140.112 30.008ZM146.516 21V19.432H147.924V21H146.516ZM146.516 31V22.584H147.924V31H146.516ZM150.26 31V19.432H151.668V31H150.26Z" fill="#B6B6B6"/>
</g>
</svg>
