<svg width="18" height="18" viewBox="0 0 18 18" fill="none" xmlns="http://www.w3.org/2000/svg">
<g clip-path="url(#clip0_53450_2229)">
<path d="M17.4501 7.05568C16.7733 5.94737 15.9196 4.95738 14.9228 4.12502L17.022 2.02581C17.3097 1.72797 17.3014 1.25336 17.0036 0.965713C16.713 0.685094 16.2524 0.685094 15.9619 0.965713L13.679 3.2516C12.2638 2.41105 10.6459 1.97292 8.99998 1.98458C4.35844 1.98458 1.71342 5.16192 0.549868 7.05571C-0.183289 8.24155 -0.183289 9.73992 0.549868 10.9258C1.22669 12.0341 2.08043 13.0241 3.07719 13.8565L0.977983 15.9557C0.680144 16.2433 0.671885 16.718 0.959533 17.0158C1.24718 17.3136 1.72182 17.3219 2.01963 17.0342C2.02588 17.0282 2.03203 17.022 2.03808 17.0158L4.32622 14.7276C5.73964 15.5681 7.3556 16.0069 8.99998 15.9969C13.6415 15.9969 16.2865 12.8196 17.4501 10.9258C18.1833 9.73992 18.1833 8.24155 17.4501 7.05568ZM4.50169 8.99073C4.49743 6.5105 6.50457 4.49645 8.9848 4.49219C9.92323 4.49058 10.8386 4.783 11.6023 5.32835L10.5137 6.41695C10.0567 6.14136 9.53367 5.99446 9.00002 5.99186C7.34379 5.99186 6.00114 7.3345 6.00114 8.99073C6.00374 9.52438 6.15064 10.0474 6.42623 10.5044L5.33764 11.593C4.79404 10.8342 4.50172 9.92417 4.50169 8.99073ZM9.00002 13.4891C8.06658 13.489 7.15658 13.1967 6.39773 12.6531L7.48633 11.5645C7.94333 11.8401 8.46637 11.987 9.00002 11.9896C10.6562 11.9896 11.9989 10.647 11.9989 8.99073C11.9963 8.45708 11.8494 7.93405 11.5738 7.47705L12.6624 6.38845C14.1037 8.40686 13.6359 11.2116 11.6175 12.6529C10.8538 13.1983 9.93845 13.4907 9.00002 13.4891Z" fill="#0E242D"/>
</g>
<defs>
<clipPath id="clip0_53450_2229">
<rect width="18" height="18" fill="white"/>
</clipPath>
</defs>
</svg>
