<svg width="18" height="18" viewBox="0 0 18 18" fill="none" xmlns="http://www.w3.org/2000/svg">
<g clip-path="url(#clip0_56872_2715)">
<path d="M17.4501 7.05556C16.7733 5.94725 15.9196 4.95726 14.9228 4.12489L17.022 2.02569C17.3097 1.72785 17.3014 1.25324 17.0036 0.965591C16.713 0.684972 16.2524 0.684972 15.9619 0.965591L13.679 3.25148C12.2638 2.41093 10.6459 1.97279 8.99998 1.98446C4.35844 1.98446 1.71342 5.1618 0.549868 7.05559C-0.183289 8.24143 -0.183289 9.73979 0.549868 10.9257C1.22669 12.034 2.08043 13.024 3.07719 13.8563L0.977983 15.9555C0.680144 16.2432 0.671885 16.7178 0.959533 17.0156C1.24718 17.3135 1.72182 17.3217 2.01963 17.0341C2.02588 17.028 2.03203 17.0219 2.03808 17.0156L4.32622 14.7275C5.73964 15.5679 7.3556 16.0068 8.99998 15.9968C13.6415 15.9968 16.2865 12.8194 17.4501 10.9256C18.1833 9.73979 18.1833 8.24143 17.4501 7.05556ZM4.50169 8.99061C4.49743 6.51038 6.50457 4.49632 8.9848 4.49207C9.92323 4.49045 10.8386 4.78288 11.6023 5.32823L10.5137 6.41683C10.0567 6.14124 9.53367 5.99434 9.00002 5.99174C7.34379 5.99174 6.00114 7.33438 6.00114 8.99061C6.00374 9.52426 6.15064 10.0473 6.42623 10.5043L5.33764 11.5929C4.79404 10.834 4.50172 9.92405 4.50169 8.99061ZM9.00002 13.4889C8.06658 13.4889 7.15658 13.1966 6.39773 12.653L7.48633 11.5644C7.94333 11.84 8.46637 11.9869 9.00002 11.9895C10.6562 11.9895 11.9989 10.6468 11.9989 8.99061C11.9963 8.45696 11.8494 7.93393 11.5738 7.47692L12.6624 6.38833C14.1037 8.40674 13.6359 11.2115 11.6175 12.6528C10.8538 13.1981 9.93845 13.4906 9.00002 13.4889Z" fill="#0E242D"/>
</g>
<defs>
<clipPath id="clip0_56872_2715">
<rect width="18" height="18" fill="white"/>
</clipPath>
</defs>
</svg>
