<svg width="25" height="24" viewBox="0 0 25 24" fill="none" xmlns="http://www.w3.org/2000/svg">
<path d="M12.5049 22C11.1382 22 9.84655 21.7375 8.62988 21.2125C7.41322 20.6875 6.35072 19.9708 5.44238 19.0625C4.53405 18.1542 3.81738 17.0917 3.29238 15.875C2.76738 14.6583 2.50488 13.3667 2.50488 12C2.50488 10.6167 2.76738 9.32083 3.29238 8.1125C3.81738 6.90417 4.53405 5.84583 5.44238 4.9375C6.35072 4.02917 7.41322 3.3125 8.62988 2.7875C9.84655 2.2625 11.1382 2 12.5049 2C13.8882 2 15.184 2.2625 16.3924 2.7875C17.6007 3.3125 18.659 4.02917 19.5674 4.9375C20.4757 5.84583 21.1924 6.90417 21.7174 8.1125C22.2424 9.32083 22.5049 10.6167 22.5049 12C22.5049 13.3667 22.2424 14.6583 21.7174 15.875C21.1924 17.0917 20.4757 18.1542 19.5674 19.0625C18.659 19.9708 17.6007 20.6875 16.3924 21.2125C15.184 21.7375 13.8882 22 12.5049 22ZM12.5049 19.95C12.9382 19.35 13.3132 18.725 13.6299 18.075C13.9465 17.425 14.2049 16.7333 14.4049 16H10.6049C10.8049 16.7333 11.0632 17.425 11.3799 18.075C11.6965 18.725 12.0715 19.35 12.5049 19.95ZM9.90488 19.55C9.60488 19 9.34238 18.4292 9.11738 17.8375C8.89238 17.2458 8.70488 16.6333 8.55488 16H5.60488C6.08822 16.8333 6.69238 17.5583 7.41738 18.175C8.14238 18.7917 8.97155 19.25 9.90488 19.55ZM15.1049 19.55C16.0382 19.25 16.8674 18.7917 17.5924 18.175C18.3174 17.5583 18.9215 16.8333 19.4049 16H16.4549C16.3049 16.6333 16.1174 17.2458 15.8924 17.8375C15.6674 18.4292 15.4049 19 15.1049 19.55ZM4.75488 14H8.15488C8.10488 13.6667 8.06738 13.3375 8.04238 13.0125C8.01738 12.6875 8.00488 12.35 8.00488 12C8.00488 11.65 8.01738 11.3125 8.04238 10.9875C8.06738 10.6625 8.10488 10.3333 8.15488 10H4.75488C4.67155 10.3333 4.60905 10.6625 4.56738 10.9875C4.52572 11.3125 4.50488 11.65 4.50488 12C4.50488 12.35 4.52572 12.6875 4.56738 13.0125C4.60905 13.3375 4.67155 13.6667 4.75488 14ZM10.1549 14H14.8549C14.9049 13.6667 14.9424 13.3375 14.9674 13.0125C14.9924 12.6875 15.0049 12.35 15.0049 12C15.0049 11.65 14.9924 11.3125 14.9674 10.9875C14.9424 10.6625 14.9049 10.3333 14.8549 10H10.1549C10.1049 10.3333 10.0674 10.6625 10.0424 10.9875C10.0174 11.3125 10.0049 11.65 10.0049 12C10.0049 12.35 10.0174 12.6875 10.0424 13.0125C10.0674 13.3375 10.1049 13.6667 10.1549 14ZM16.8549 14H20.2549C20.3382 13.6667 20.4007 13.3375 20.4424 13.0125C20.484 12.6875 20.5049 12.35 20.5049 12C20.5049 11.65 20.484 11.3125 20.4424 10.9875C20.4007 10.6625 20.3382 10.3333 20.2549 10H16.8549C16.9049 10.3333 16.9424 10.6625 16.9674 10.9875C16.9924 11.3125 17.0049 11.65 17.0049 12C17.0049 12.35 16.9924 12.6875 16.9674 13.0125C16.9424 13.3375 16.9049 13.6667 16.8549 14ZM16.4549 8H19.4049C18.9215 7.16667 18.3174 6.44167 17.5924 5.825C16.8674 5.20833 16.0382 4.75 15.1049 4.45C15.4049 5 15.6674 5.57083 15.8924 6.1625C16.1174 6.75417 16.3049 7.36667 16.4549 8ZM10.6049 8H14.4049C14.2049 7.26667 13.9465 6.575 13.6299 5.925C13.3132 5.275 12.9382 4.65 12.5049 4.05C12.0715 4.65 11.6965 5.275 11.3799 5.925C11.0632 6.575 10.8049 7.26667 10.6049 8ZM5.60488 8H8.55488C8.70488 7.36667 8.89238 6.75417 9.11738 6.1625C9.34238 5.57083 9.60488 5 9.90488 4.45C8.97155 4.75 8.14238 5.20833 7.41738 5.825C6.69238 6.44167 6.08822 7.16667 5.60488 8Z" fill="#1D1B20"/>
</svg>
