<svg width="25" height="24" viewBox="0 0 25 24" fill="none" xmlns="http://www.w3.org/2000/svg">
<path d="M9.5832 22L9.1832 18.8C8.96654 18.7167 8.76237 18.6167 8.5707 18.5C8.37904 18.3833 8.19154 18.2583 8.0082 18.125L5.0332 19.375L2.2832 14.625L4.8582 12.675C4.84154 12.5583 4.8332 12.4458 4.8332 12.3375V11.6625C4.8332 11.5542 4.84154 11.4417 4.8582 11.325L2.2832 9.375L5.0332 4.625L8.0082 5.875C8.19154 5.74167 8.3832 5.61667 8.5832 5.5C8.7832 5.38333 8.9832 5.28333 9.1832 5.2L9.5832 2H15.0832L15.4832 5.2C15.6999 5.28333 15.904 5.38333 16.0957 5.5C16.2874 5.61667 16.4749 5.74167 16.6582 5.875L19.6332 4.625L22.3832 9.375L19.8082 11.325C19.8249 11.4417 19.8332 11.5542 19.8332 11.6625V12.3375C19.8332 12.4458 19.8165 12.5583 19.7832 12.675L22.3582 14.625L19.6082 19.375L16.6582 18.125C16.4749 18.2583 16.2832 18.3833 16.0832 18.5C15.8832 18.6167 15.6832 18.7167 15.4832 18.8L15.0832 22H9.5832ZM12.3832 15.5C13.3499 15.5 14.1749 15.1583 14.8582 14.475C15.5415 13.7917 15.8832 12.9667 15.8832 12C15.8832 11.0333 15.5415 10.2083 14.8582 9.525C14.1749 8.84167 13.3499 8.5 12.3832 8.5C11.3999 8.5 10.5707 8.84167 9.8957 9.525C9.2207 10.2083 8.8832 11.0333 8.8832 12C8.8832 12.9667 9.2207 13.7917 9.8957 14.475C10.5707 15.1583 11.3999 15.5 12.3832 15.5Z" fill="#1D1B20"/>
</svg>
