<svg width="25" height="24" viewBox="0 0 25 24" fill="none" xmlns="http://www.w3.org/2000/svg">
<path d="M9.58336 22L9.18336 18.8C8.96669 18.7167 8.76252 18.6167 8.57086 18.5C8.37919 18.3833 8.19169 18.2583 8.00836 18.125L5.03336 19.375L2.28336 14.625L4.85836 12.675C4.84169 12.5583 4.83336 12.4458 4.83336 12.3375V11.6625C4.83336 11.5542 4.84169 11.4417 4.85836 11.325L2.28336 9.375L5.03336 4.625L8.00836 5.875C8.19169 5.74167 8.38336 5.61667 8.58336 5.5C8.78336 5.38333 8.98336 5.28333 9.18336 5.2L9.58336 2H15.0834L15.4834 5.2C15.7 5.28333 15.9042 5.38333 16.0959 5.5C16.2875 5.61667 16.475 5.74167 16.6584 5.875L19.6334 4.625L22.3834 9.375L19.8084 11.325C19.825 11.4417 19.8334 11.5542 19.8334 11.6625V12.3375C19.8334 12.4458 19.8167 12.5583 19.7834 12.675L22.3584 14.625L19.6084 19.375L16.6584 18.125C16.475 18.2583 16.2834 18.3833 16.0834 18.5C15.8834 18.6167 15.6834 18.7167 15.4834 18.8L15.0834 22H9.58336ZM12.3834 15.5C13.35 15.5 14.175 15.1583 14.8584 14.475C15.5417 13.7917 15.8834 12.9667 15.8834 12C15.8834 11.0333 15.5417 10.2083 14.8584 9.525C14.175 8.84167 13.35 8.5 12.3834 8.5C11.4 8.5 10.5709 8.84167 9.89586 9.525C9.22086 10.2083 8.88336 11.0333 8.88336 12C8.88336 12.9667 9.22086 13.7917 9.89586 14.475C10.5709 15.1583 11.4 15.5 12.3834 15.5Z" fill="#1D1B20"/>
</svg>
