<svg width="330" height="56" viewBox="0 0 330 56" fill="none" xmlns="http://www.w3.org/2000/svg">
<rect width="330" height="56" rx="20" fill="#EAEAEA"/>
<mask id="mask0_54910_2533" style="mask-type:alpha" maskUnits="userSpaceOnUse" x="0" y="0" width="165" height="56">
<rect width="165" height="56" rx="20" fill="#EAEAEA"/>
</mask>
<g mask="url(#mask0_54910_2533)">
<path d="M41.376 31V20.024H42.896V31H41.376ZM45.5196 31V22.584H46.6556L46.7836 23.848H46.8956C47.1196 23.5067 47.3703 23.2293 47.6476 23.016C47.9356 22.8027 48.2503 22.648 48.5916 22.552C48.9436 22.4453 49.317 22.392 49.7116 22.392C50.245 22.392 50.709 22.4827 51.1036 22.664C51.509 22.8453 51.8236 23.1387 52.0476 23.544C52.2823 23.9493 52.3996 24.4987 52.3996 25.192V31H50.9916V25.384C50.9916 25.032 50.9436 24.744 50.8476 24.52C50.7623 24.296 50.6396 24.12 50.4796 23.992C50.3303 23.864 50.1436 23.7733 49.9196 23.72C49.7063 23.6667 49.4663 23.64 49.1996 23.64C48.805 23.64 48.4316 23.736 48.0796 23.928C47.7276 24.12 47.445 24.3973 47.2316 24.76C47.029 25.1227 46.9276 25.5547 46.9276 26.056V31H45.5196ZM56.1093 33.912C55.7039 33.912 55.3306 33.8267 54.9893 33.656C54.6479 33.496 54.3759 33.2613 54.1733 32.952C53.9706 32.6427 53.8693 32.2747 53.8693 31.848C53.8693 31.3787 53.9973 30.9893 54.2533 30.68C54.5199 30.3707 54.8346 30.1413 55.1973 29.992C54.9306 29.864 54.7226 29.688 54.5733 29.464C54.4239 29.2293 54.3493 28.9733 54.3493 28.696C54.3493 28.3227 54.4826 28.008 54.7493 27.752C55.0266 27.496 55.3626 27.3253 55.7573 27.24C55.3946 27.0053 55.1066 26.7067 54.8933 26.344C54.6906 25.9707 54.5893 25.56 54.5893 25.112C54.5893 24.5787 54.7119 24.1093 54.9573 23.704C55.2133 23.2987 55.5973 22.9787 56.1093 22.744C56.6319 22.5093 57.2666 22.392 58.0133 22.392C58.3546 22.392 58.6746 22.4187 58.9733 22.472C59.2719 22.5147 59.5386 22.5893 59.7733 22.696C60.1466 22.5253 60.4239 22.3067 60.6053 22.04C60.7973 21.7733 60.9146 21.5013 60.9573 21.224H62.3493C62.3493 21.544 62.2746 21.848 62.1253 22.136C61.9866 22.4133 61.7946 22.648 61.5493 22.84C61.3039 23.0213 61.0053 23.144 60.6533 23.208C60.9199 23.464 61.1173 23.752 61.2453 24.072C61.3839 24.392 61.4533 24.7387 61.4533 25.112C61.4533 25.6453 61.3253 26.12 61.0693 26.536C60.8239 26.9413 60.4506 27.2613 59.9493 27.496C59.4479 27.7307 58.8186 27.848 58.0613 27.848H56.7493C56.4613 27.848 56.2266 27.9067 56.0453 28.024C55.8639 28.1307 55.7733 28.3067 55.7733 28.552C55.7733 28.7653 55.8639 28.9413 56.0453 29.08C56.2266 29.208 56.4613 29.272 56.7493 29.272H60.1733C60.7919 29.272 61.2986 29.48 61.6933 29.896C62.0879 30.3013 62.2853 30.824 62.2853 31.464C62.2853 31.9227 62.1679 32.3333 61.9333 32.696C61.7093 33.0693 61.3893 33.3627 60.9733 33.576C60.5679 33.8 60.0933 33.912 59.5493 33.912H56.1093ZM56.5093 32.84H59.5333C59.7786 32.84 60.0026 32.7867 60.2053 32.68C60.4079 32.584 60.5679 32.4453 60.6853 32.264C60.8026 32.0827 60.8613 31.8853 60.8613 31.672C60.8613 31.3093 60.7546 31.0213 60.5413 30.808C60.3279 30.5947 60.0613 30.488 59.7413 30.488H56.5093C56.1679 30.488 55.8799 30.6053 55.6453 30.84C55.4106 31.064 55.2933 31.3413 55.2933 31.672C55.2933 32.024 55.4106 32.3067 55.6453 32.52C55.8799 32.7333 56.1679 32.84 56.5093 32.84ZM58.0293 26.792C58.7119 26.792 59.2186 26.6427 59.5493 26.344C59.8799 26.0453 60.0453 25.6347 60.0453 25.112C60.0453 24.6 59.8799 24.1947 59.5493 23.896C59.2186 23.5973 58.7119 23.448 58.0293 23.448C57.3466 23.448 56.8346 23.5973 56.4933 23.896C56.1626 24.1947 55.9973 24.6 55.9973 25.112C55.9973 25.4427 56.0719 25.736 56.2213 25.992C56.3706 26.248 56.5946 26.4453 56.8933 26.584C57.1919 26.7227 57.5706 26.792 58.0293 26.792ZM63.7259 31V22.584H64.8619L64.9899 23.976H65.1019C65.1872 23.7093 65.3045 23.4587 65.4539 23.224C65.6032 22.9787 65.8059 22.7813 66.0619 22.632C66.3179 22.472 66.6325 22.392 67.0059 22.392C67.1659 22.392 67.3099 22.408 67.4379 22.44C67.5765 22.4613 67.6779 22.488 67.7419 22.52V23.816H67.2139C66.8512 23.816 66.5365 23.88 66.2699 24.008C66.0139 24.1253 65.8005 24.296 65.6299 24.52C65.4592 24.744 65.3312 25.0107 65.2459 25.32C65.1712 25.6293 65.1339 25.96 65.1339 26.312V31H63.7259ZM72.3921 31.192C71.5601 31.192 70.8561 31.0373 70.2801 30.728C69.7148 30.408 69.2828 29.9227 68.9841 29.272C68.6961 28.6213 68.5521 27.7947 68.5521 26.792C68.5521 25.7787 68.6961 24.952 68.9841 24.312C69.2828 23.6613 69.7201 23.1813 70.2961 22.872C70.8721 22.552 71.5921 22.392 72.4561 22.392C73.2455 22.392 73.9068 22.5467 74.4401 22.856C74.9735 23.1547 75.3735 23.608 75.6401 24.216C75.9175 24.8133 76.0561 25.5653 76.0561 26.472V27.144H70.0081C70.0295 27.816 70.1255 28.3707 70.2961 28.808C70.4775 29.2347 70.7441 29.5493 71.0961 29.752C71.4481 29.944 71.8908 30.04 72.4241 30.04C72.7868 30.04 73.1015 29.9973 73.3681 29.912C73.6455 29.816 73.8748 29.6827 74.0561 29.512C74.2481 29.3413 74.3921 29.1387 74.4881 28.904C74.5841 28.6693 74.6375 28.4133 74.6481 28.136H76.0241C76.0135 28.584 75.9281 29 75.7681 29.384C75.6081 29.7573 75.3735 30.0773 75.0641 30.344C74.7548 30.6107 74.3761 30.8187 73.9281 30.968C73.4801 31.1173 72.9681 31.192 72.3921 31.192ZM70.0401 26.088H74.6001C74.6001 25.6187 74.5468 25.224 74.4401 24.904C74.3335 24.584 74.1788 24.3227 73.9761 24.12C73.7841 23.9173 73.5548 23.7733 73.2881 23.688C73.0321 23.592 72.7388 23.544 72.4081 23.544C71.9175 23.544 71.5015 23.6347 71.1601 23.816C70.8188 23.9973 70.5575 24.2747 70.3761 24.648C70.1948 25.0213 70.0828 25.5013 70.0401 26.088ZM80.8918 31.192C80.3158 31.192 79.8091 31.1333 79.3718 31.016C78.9344 30.8987 78.5718 30.728 78.2838 30.504C77.9958 30.28 77.7771 30.0133 77.6278 29.704C77.4784 29.3947 77.4038 29.0427 77.4038 28.648C77.4038 28.5947 77.4038 28.5467 77.4038 28.504C77.4038 28.4507 77.4091 28.408 77.4198 28.376H78.8118C78.8011 28.4187 78.7958 28.456 78.7958 28.488C78.7958 28.52 78.7958 28.552 78.7958 28.584C78.8064 28.9573 78.9024 29.2507 79.0838 29.464C79.2758 29.6773 79.5371 29.8267 79.8678 29.912C80.1984 29.9973 80.5664 30.04 80.9718 30.04C81.3238 30.04 81.6491 29.9973 81.9478 29.912C82.2464 29.816 82.4811 29.6773 82.6518 29.496C82.8331 29.304 82.9238 29.064 82.9238 28.776C82.9238 28.424 82.8064 28.1573 82.5718 27.976C82.3478 27.784 82.0491 27.6347 81.6758 27.528C81.3024 27.4213 80.9131 27.3093 80.5078 27.192C80.1664 27.096 79.8251 26.9893 79.4838 26.872C79.1424 26.7547 78.8331 26.6107 78.5558 26.44C78.2891 26.2693 78.0704 26.0507 77.8997 25.784C77.7398 25.5067 77.6598 25.16 77.6598 24.744C77.6598 24.3707 77.7344 24.04 77.8838 23.752C78.0438 23.464 78.2678 23.2187 78.5558 23.016C78.8438 22.8133 79.1904 22.664 79.5958 22.568C80.0118 22.4613 80.4704 22.408 80.9718 22.408C81.5051 22.408 81.9691 22.4667 82.3638 22.584C82.7691 22.7013 83.1051 22.8667 83.3718 23.08C83.6384 23.2933 83.8358 23.5387 83.9638 23.816C84.0918 24.0827 84.1558 24.3707 84.1558 24.68C84.1558 24.744 84.1558 24.808 84.1558 24.872C84.1558 24.9253 84.1504 24.968 84.1398 25H82.7638V24.824C82.7638 24.6107 82.7051 24.408 82.5878 24.216C82.4811 24.0133 82.2891 23.8533 82.0118 23.736C81.7451 23.608 81.3718 23.544 80.8918 23.544C80.5824 23.544 80.3158 23.5707 80.0918 23.624C79.8678 23.6667 79.6811 23.7413 79.5318 23.848C79.3824 23.944 79.2704 24.0613 79.1957 24.2C79.1211 24.328 79.0838 24.4773 79.0838 24.648C79.0838 24.9253 79.1744 25.1387 79.3558 25.288C79.5371 25.4373 79.7771 25.56 80.0758 25.656C80.3851 25.752 80.7158 25.8587 81.0677 25.976C81.4411 26.0827 81.8198 26.1947 82.2038 26.312C82.5984 26.4187 82.9558 26.5573 83.2758 26.728C83.6064 26.8987 83.8678 27.1333 84.0598 27.432C84.2624 27.72 84.3638 28.104 84.3638 28.584C84.3638 29.032 84.2784 29.4213 84.1078 29.752C83.9371 30.0827 83.6918 30.3547 83.3718 30.568C83.0624 30.7813 82.6944 30.936 82.2678 31.032C81.8518 31.1387 81.3931 31.192 80.8918 31.192ZM89.614 31.192C88.782 31.192 88.078 31.0373 87.502 30.728C86.9367 30.408 86.5047 29.9227 86.206 29.272C85.918 28.6213 85.774 27.7947 85.774 26.792C85.774 25.7787 85.918 24.952 86.206 24.312C86.5047 23.6613 86.942 23.1813 87.518 22.872C88.094 22.552 88.814 22.392 89.678 22.392C90.4673 22.392 91.1287 22.5467 91.662 22.856C92.1953 23.1547 92.5953 23.608 92.862 24.216C93.1393 24.8133 93.278 25.5653 93.278 26.472V27.144H87.23C87.2513 27.816 87.3473 28.3707 87.518 28.808C87.6993 29.2347 87.966 29.5493 88.318 29.752C88.67 29.944 89.1127 30.04 89.646 30.04C90.0087 30.04 90.3233 29.9973 90.59 29.912C90.8673 29.816 91.0967 29.6827 91.278 29.512C91.47 29.3413 91.614 29.1387 91.71 28.904C91.806 28.6693 91.8593 28.4133 91.87 28.136H93.246C93.2353 28.584 93.15 29 92.99 29.384C92.83 29.7573 92.5953 30.0773 92.286 30.344C91.9767 30.6107 91.598 30.8187 91.15 30.968C90.702 31.1173 90.19 31.192 89.614 31.192ZM87.262 26.088H91.822C91.822 25.6187 91.7687 25.224 91.662 24.904C91.5553 24.584 91.4007 24.3227 91.198 24.12C91.006 23.9173 90.7767 23.7733 90.51 23.688C90.254 23.592 89.9607 23.544 89.63 23.544C89.1393 23.544 88.7233 23.6347 88.382 23.816C88.0407 23.9973 87.7793 24.2747 87.598 24.648C87.4167 25.0213 87.3047 25.5013 87.262 26.088ZM98.6634 31V19.432H100.071V31H98.6634ZM104.519 31.192C104.21 31.192 103.9 31.1547 103.591 31.08C103.282 31.0053 102.994 30.8827 102.727 30.712C102.46 30.5413 102.247 30.3067 102.087 30.008C101.927 29.6987 101.847 29.3147 101.847 28.856C101.847 28.28 101.986 27.8053 102.263 27.432C102.54 27.0587 102.924 26.7707 103.415 26.568C103.916 26.3547 104.508 26.2107 105.191 26.136C105.874 26.0507 106.615 26.008 107.415 26.008V25.048C107.415 24.7387 107.362 24.472 107.255 24.248C107.148 24.024 106.956 23.8533 106.679 23.736C106.412 23.608 106.028 23.544 105.527 23.544C105.047 23.544 104.663 23.608 104.375 23.736C104.098 23.8533 103.9 24.008 103.783 24.2C103.676 24.392 103.623 24.6053 103.623 24.84V25.08H102.263C102.252 25.0267 102.247 24.9733 102.247 24.92C102.247 24.8667 102.247 24.8027 102.247 24.728C102.247 24.216 102.386 23.7893 102.663 23.448C102.951 23.096 103.351 22.8347 103.863 22.664C104.375 22.4827 104.962 22.392 105.623 22.392C106.327 22.392 106.914 22.4933 107.383 22.696C107.863 22.8987 108.22 23.1867 108.455 23.56C108.7 23.9333 108.823 24.3813 108.823 24.904V29.464C108.823 29.6667 108.871 29.8107 108.967 29.896C109.063 29.9707 109.18 30.008 109.319 30.008H109.943V30.936C109.794 31 109.628 31.0533 109.447 31.096C109.266 31.1493 109.058 31.176 108.823 31.176C108.546 31.176 108.316 31.1173 108.135 31C107.954 30.8933 107.815 30.744 107.719 30.552C107.623 30.3493 107.559 30.1253 107.527 29.88H107.415C107.223 30.1467 106.978 30.3813 106.679 30.584C106.391 30.776 106.066 30.9253 105.703 31.032C105.34 31.1387 104.946 31.192 104.519 31.192ZM104.871 30.008C105.212 30.008 105.532 29.9547 105.831 29.848C106.14 29.7413 106.412 29.592 106.647 29.4C106.882 29.1973 107.068 28.9573 107.207 28.68C107.346 28.4027 107.415 28.0987 107.415 27.768V27.064C106.551 27.064 105.815 27.112 105.207 27.208C104.599 27.304 104.13 27.4747 103.799 27.72C103.479 27.9653 103.319 28.312 103.319 28.76C103.319 29.048 103.383 29.2827 103.511 29.464C103.639 29.6453 103.82 29.784 104.055 29.88C104.29 29.9653 104.562 30.008 104.871 30.008ZM117.97 31.192C117.159 31.192 116.476 31.0373 115.922 30.728C115.378 30.408 114.962 29.9227 114.674 29.272C114.396 28.6107 114.258 27.784 114.258 26.792C114.258 25.8 114.396 24.9787 114.674 24.328C114.962 23.6773 115.383 23.192 115.938 22.872C116.503 22.552 117.196 22.392 118.018 22.392C118.594 22.392 119.09 22.4667 119.506 22.616C119.932 22.7653 120.284 22.984 120.562 23.272C120.839 23.56 121.042 23.9067 121.17 24.312C121.308 24.7173 121.378 25.1813 121.378 25.704H119.954C119.954 25.2133 119.884 24.8133 119.746 24.504C119.618 24.184 119.41 23.9493 119.122 23.8C118.834 23.64 118.455 23.56 117.986 23.56C117.516 23.56 117.111 23.6667 116.77 23.88C116.428 24.0827 116.167 24.408 115.986 24.856C115.804 25.304 115.714 25.896 115.714 26.632V26.968C115.714 27.6613 115.799 28.2373 115.97 28.696C116.151 29.1547 116.412 29.4907 116.754 29.704C117.095 29.9173 117.511 30.024 118.002 30.024C118.482 30.024 118.866 29.9387 119.154 29.768C119.452 29.5973 119.666 29.352 119.794 29.032C119.932 28.712 120.002 28.328 120.002 27.88H121.378C121.378 28.3493 121.308 28.7867 121.17 29.192C121.042 29.5973 120.839 29.9493 120.562 30.248C120.284 30.5467 119.932 30.7813 119.506 30.952C119.079 31.112 118.567 31.192 117.97 31.192ZM123.217 31V19.432H124.625V31H123.217ZM129.072 31.192C128.763 31.192 128.454 31.1547 128.144 31.08C127.835 31.0053 127.547 30.8827 127.28 30.712C127.014 30.5413 126.8 30.3067 126.64 30.008C126.48 29.6987 126.4 29.3147 126.4 28.856C126.4 28.28 126.539 27.8053 126.816 27.432C127.094 27.0587 127.478 26.7707 127.968 26.568C128.47 26.3547 129.062 26.2107 129.744 26.136C130.427 26.0507 131.168 26.008 131.968 26.008V25.048C131.968 24.7387 131.915 24.472 131.808 24.248C131.702 24.024 131.51 23.8533 131.232 23.736C130.966 23.608 130.582 23.544 130.08 23.544C129.6 23.544 129.216 23.608 128.928 23.736C128.651 23.8533 128.454 24.008 128.336 24.2C128.23 24.392 128.176 24.6053 128.176 24.84V25.08H126.816C126.806 25.0267 126.8 24.9733 126.8 24.92C126.8 24.8667 126.8 24.8027 126.8 24.728C126.8 24.216 126.939 23.7893 127.216 23.448C127.504 23.096 127.904 22.8347 128.416 22.664C128.928 22.4827 129.515 22.392 130.176 22.392C130.88 22.392 131.467 22.4933 131.936 22.696C132.416 22.8987 132.774 23.1867 133.008 23.56C133.254 23.9333 133.376 24.3813 133.376 24.904V29.464C133.376 29.6667 133.424 29.8107 133.52 29.896C133.616 29.9707 133.734 30.008 133.872 30.008H134.496V30.936C134.347 31 134.182 31.0533 134 31.096C133.819 31.1493 133.611 31.176 133.376 31.176C133.099 31.176 132.87 31.1173 132.688 31C132.507 30.8933 132.368 30.744 132.272 30.552C132.176 30.3493 132.112 30.1253 132.08 29.88H131.968C131.776 30.1467 131.531 30.3813 131.232 30.584C130.944 30.776 130.619 30.9253 130.256 31.032C129.894 31.1387 129.499 31.192 129.072 31.192ZM129.424 30.008C129.766 30.008 130.086 29.9547 130.384 29.848C130.694 29.7413 130.966 29.592 131.2 29.4C131.435 29.1973 131.622 28.9573 131.76 28.68C131.899 28.4027 131.968 28.0987 131.968 27.768V27.064C131.104 27.064 130.368 27.112 129.76 27.208C129.152 27.304 128.683 27.4747 128.352 27.72C128.032 27.9653 127.872 28.312 127.872 28.76C127.872 29.048 127.936 29.2827 128.064 29.464C128.192 29.6453 128.374 29.784 128.608 29.88C128.843 29.9653 129.115 30.008 129.424 30.008ZM138.053 31L134.933 22.584H136.405L137.941 26.792C138.016 26.9947 138.101 27.2507 138.197 27.56C138.293 27.8587 138.389 28.168 138.485 28.488C138.592 28.7973 138.677 29.0747 138.741 29.32H138.821C138.896 29.0853 138.981 28.8133 139.077 28.504C139.173 28.184 139.269 27.8747 139.365 27.576C139.472 27.2667 139.562 27.0053 139.637 26.792L141.157 22.584H142.581L139.461 31H138.053ZM147.323 31.192C146.491 31.192 145.787 31.0373 145.211 30.728C144.646 30.408 144.214 29.9227 143.915 29.272C143.627 28.6213 143.483 27.7947 143.483 26.792C143.483 25.7787 143.627 24.952 143.915 24.312C144.214 23.6613 144.651 23.1813 145.227 22.872C145.803 22.552 146.523 22.392 147.387 22.392C148.177 22.392 148.838 22.5467 149.371 22.856C149.905 23.1547 150.305 23.608 150.571 24.216C150.849 24.8133 150.987 25.5653 150.987 26.472V27.144H144.939C144.961 27.816 145.057 28.3707 145.227 28.808C145.409 29.2347 145.675 29.5493 146.027 29.752C146.379 29.944 146.822 30.04 147.355 30.04C147.718 30.04 148.033 29.9973 148.299 29.912C148.577 29.816 148.806 29.6827 148.987 29.512C149.179 29.3413 149.323 29.1387 149.419 28.904C149.515 28.6693 149.569 28.4133 149.579 28.136H150.955C150.945 28.584 150.859 29 150.699 29.384C150.539 29.7573 150.305 30.0773 149.995 30.344C149.686 30.6107 149.307 30.8187 148.859 30.968C148.411 31.1173 147.899 31.192 147.323 31.192ZM144.971 26.088H149.531C149.531 25.6187 149.478 25.224 149.371 24.904C149.265 24.584 149.11 24.3227 148.907 24.12C148.715 23.9173 148.486 23.7733 148.219 23.688C147.963 23.592 147.67 23.544 147.339 23.544C146.849 23.544 146.433 23.6347 146.091 23.816C145.75 23.9973 145.489 24.2747 145.307 24.648C145.126 25.0213 145.014 25.5013 144.971 26.088Z" fill="#B6B6B6"/>
</g>
</svg>
