<svg width="7" height="6" viewBox="0 0 7 6" fill="none" xmlns="http://www.w3.org/2000/svg">
<path fill-rule="evenodd" clip-rule="evenodd" d="M2.54873 1.1004C2.54873 1.59762 2.14573 2.00061 1.64851 2.00061C1.15129 2.00061 0.748291 1.59762 0.748291 1.1004C0.748291 0.603189 1.15129 0.200195 1.64851 0.200195C2.14573 0.200195 2.54873 0.603189 2.54873 1.1004ZM3.74827 5.39751C2.79517 5.39751 1.88647 4.98832 1.25497 4.27432C1.06297 4.05712 1.08337 3.72562 1.30027 3.53332C1.51747 3.34132 1.84927 3.36142 2.04157 3.57892C2.47357 4.06702 3.09577 4.34752 3.74827 4.34752C4.40078 4.34752 5.02298 4.06702 5.45498 3.57892C5.64728 3.36082 5.97938 3.34132 6.19628 3.53332C6.41318 3.72562 6.43358 4.05712 6.24158 4.27432C5.61008 4.98832 4.70138 5.39751 3.74827 5.39751ZM5.84869 2.00063C6.34591 2.00063 6.7489 1.59763 6.7489 1.10041C6.7489 0.603193 6.34591 0.200195 5.84869 0.200195C5.35148 0.200195 4.94849 0.603193 4.94849 1.10041C4.94849 1.59763 5.35148 2.00063 5.84869 2.00063Z" fill="#49454F"/>
</svg>
