<svg width="25" height="24" viewBox="0 0 25 24" fill="none" xmlns="http://www.w3.org/2000/svg">
<path d="M12.6667 22L11.6667 19H4.66669C4.11669 19 3.64585 18.8042 3.25419 18.4125C2.86252 18.0208 2.66669 17.55 2.66669 17V4C2.66669 3.45 2.86252 2.97917 3.25419 2.5875C3.64585 2.19583 4.11669 2 4.66669 2H10.6667L11.5417 5H20.6667C21.25 5 21.7292 5.1875 22.1042 5.5625C22.4792 5.9375 22.6667 6.41667 22.6667 7V20C22.6667 20.55 22.4792 21.0208 22.1042 21.4125C21.7292 21.8042 21.25 22 20.6667 22H12.6667ZM7.81669 14.6C8.96669 14.6 9.91252 14.2292 10.6542 13.4875C11.3959 12.7458 11.7667 11.7833 11.7667 10.6C11.7667 10.4667 11.7625 10.3458 11.7542 10.2375C11.7459 10.1292 11.725 10.0167 11.6917 9.9H7.74169V11.45H9.96669C9.83335 11.9167 9.57919 12.2792 9.20419 12.5375C8.82919 12.7958 8.37502 12.925 7.84169 12.925C7.19169 12.925 6.63335 12.6917 6.16669 12.225C5.70002 11.7583 5.46669 11.1833 5.46669 10.5C5.46669 9.81667 5.70002 9.24167 6.16669 8.775C6.63335 8.30833 7.19169 8.075 7.84169 8.075C8.14169 8.075 8.42502 8.12917 8.69169 8.2375C8.95835 8.34583 9.20002 8.50833 9.41669 8.725L10.6417 7.55C10.2917 7.18333 9.87085 6.9 9.37919 6.7C8.88752 6.5 8.36669 6.4 7.81669 6.4C6.70002 6.4 5.74585 6.79583 4.95419 7.5875C4.16252 8.37917 3.76669 9.35 3.76669 10.5C3.76669 11.65 4.16252 12.6208 4.95419 13.4125C5.74585 14.2042 6.70002 14.6 7.81669 14.6ZM14.5167 15.1L15.0667 14.575C14.8334 14.2917 14.6209 14.0167 14.4292 13.75C14.2375 13.4833 14.05 13.2 13.8667 12.9L14.5167 15.1ZM15.7667 13.825C16.2334 13.275 16.5875 12.75 16.8292 12.25C17.0709 11.75 17.2334 11.3583 17.3167 11.075H13.3417L13.6417 12.125H14.6417C14.775 12.375 14.9334 12.6458 15.1167 12.9375C15.3 13.2292 15.5167 13.525 15.7667 13.825ZM13.6667 21H20.6667C20.9667 21 21.2084 20.9042 21.3917 20.7125C21.575 20.5208 21.6667 20.2833 21.6667 20V7C21.6667 6.7 21.575 6.45833 21.3917 6.275C21.2084 6.09167 20.9667 6 20.6667 6H11.8417L13.0167 10.05H14.9917V9H16.0167V10.05H19.6667V11.075H18.3917C18.225 11.7083 17.975 12.325 17.6417 12.925C17.3084 13.525 16.9167 14.0833 16.4667 14.6L19.1917 17.275L18.4667 18L15.7667 15.3L14.8667 16.225L15.6667 19L13.6667 21Z" fill="#1D1B20"/>
</svg>
