<svg width="25" height="24" viewBox="0 0 25 24" fill="none" xmlns="http://www.w3.org/2000/svg">
<path d="M12.6667 22L11.6667 19H4.66675C4.11675 19 3.64591 18.8042 3.25425 18.4125C2.86258 18.0208 2.66675 17.55 2.66675 17V4C2.66675 3.45 2.86258 2.97917 3.25425 2.5875C3.64591 2.19583 4.11675 2 4.66675 2H10.6667L11.5417 5H20.6667C21.2501 5 21.7292 5.1875 22.1042 5.5625C22.4792 5.9375 22.6667 6.41667 22.6667 7V20C22.6667 20.55 22.4792 21.0208 22.1042 21.4125C21.7292 21.8042 21.2501 22 20.6667 22H12.6667ZM7.81675 14.6C8.96675 14.6 9.91258 14.2292 10.6542 13.4875C11.3959 12.7458 11.7667 11.7833 11.7667 10.6C11.7667 10.4667 11.7626 10.3458 11.7542 10.2375C11.7459 10.1292 11.7251 10.0167 11.6917 9.9H7.74175V11.45H9.96675C9.83342 11.9167 9.57925 12.2792 9.20425 12.5375C8.82925 12.7958 8.37508 12.925 7.84175 12.925C7.19175 12.925 6.63341 12.6917 6.16675 12.225C5.70008 11.7583 5.46675 11.1833 5.46675 10.5C5.46675 9.81667 5.70008 9.24167 6.16675 8.775C6.63341 8.30833 7.19175 8.075 7.84175 8.075C8.14175 8.075 8.42508 8.12917 8.69175 8.2375C8.95842 8.34583 9.20008 8.50833 9.41675 8.725L10.6417 7.55C10.2917 7.18333 9.87091 6.9 9.37925 6.7C8.88758 6.5 8.36675 6.4 7.81675 6.4C6.70008 6.4 5.74591 6.79583 4.95425 7.5875C4.16258 8.37917 3.76675 9.35 3.76675 10.5C3.76675 11.65 4.16258 12.6208 4.95425 13.4125C5.74591 14.2042 6.70008 14.6 7.81675 14.6ZM14.5167 15.1L15.0667 14.575C14.8334 14.2917 14.6209 14.0167 14.4292 13.75C14.2376 13.4833 14.0501 13.2 13.8667 12.9L14.5167 15.1ZM15.7667 13.825C16.2334 13.275 16.5876 12.75 16.8292 12.25C17.0709 11.75 17.2334 11.3583 17.3167 11.075H13.3417L13.6417 12.125H14.6417C14.7751 12.375 14.9334 12.6458 15.1167 12.9375C15.3001 13.2292 15.5167 13.525 15.7667 13.825ZM13.6667 21H20.6667C20.9667 21 21.2084 20.9042 21.3917 20.7125C21.5751 20.5208 21.6667 20.2833 21.6667 20V7C21.6667 6.7 21.5751 6.45833 21.3917 6.275C21.2084 6.09167 20.9667 6 20.6667 6H11.8417L13.0167 10.05H14.9917V9H16.0167V10.05H19.6667V11.075H18.3917C18.2251 11.7083 17.9751 12.325 17.6417 12.925C17.3084 13.525 16.9167 14.0833 16.4667 14.6L19.1917 17.275L18.4667 18L15.7667 15.3L14.8667 16.225L15.6667 19L13.6667 21Z" fill="#1D1B20"/>
</svg>
