<svg width="12" height="12" viewBox="0 0 12 12" fill="none" xmlns="http://www.w3.org/2000/svg">
<path d="M6.56249 9.65003L9.86249 6.35003C9.91249 6.30003 9.94799 6.24586 9.96899 6.18753C9.98999 6.1292 10.0003 6.0667 9.99999 6.00003C9.99999 5.93336 9.98949 5.87086 9.96849 5.81253C9.94749 5.7542 9.91216 5.70003 9.86249 5.65003L6.56249 2.35003C6.47083 2.25836 6.35616 2.21053 6.21849 2.20653C6.08083 2.20253 5.96216 2.25036 5.86249 2.35003C5.76249 2.4417 5.71033 2.55636 5.70599 2.69403C5.70166 2.8317 5.74966 2.95036 5.84999 3.05003L8.29999 5.50003H2.71249C2.57083 5.50003 2.45199 5.54803 2.35599 5.64403C2.25999 5.74003 2.21216 5.8587 2.21249 6.00003C2.21249 6.1417 2.26033 6.26053 2.35599 6.35653C2.45166 6.45253 2.57049 6.50036 2.71249 6.50003H8.29999L5.84999 8.95003C5.75833 9.0417 5.71033 9.15836 5.70599 9.30003C5.70166 9.4417 5.74966 9.55836 5.84999 9.65003C5.94166 9.75003 6.05833 9.80003 6.19999 9.80003C6.34166 9.80003 6.46249 9.75003 6.56249 9.65003Z" fill="black"/>
</svg>
