<svg width="24" height="25" viewBox="0 0 24 25" fill="none" xmlns="http://www.w3.org/2000/svg">
<rect width="24" height="24" transform="translate(0 0.5)" fill="#00B7C0"/>
<path d="M10.875 19.8L4.275 13.2C4.175 13.1 4.104 12.9917 4.062 12.875C4.02 12.7583 3.99933 12.6333 4 12.5C4 12.3667 4.021 12.2417 4.063 12.125C4.105 12.0083 4.17567 11.9 4.275 11.8L10.875 5.2C11.0583 5.01667 11.2877 4.921 11.563 4.913C11.8383 4.905 12.0757 5.00067 12.275 5.2C12.475 5.38333 12.5793 5.61267 12.588 5.888C12.5967 6.16333 12.5007 6.40067 12.3 6.6L7.4 11.5H18.575C18.8583 11.5 19.096 11.596 19.288 11.788C19.48 11.98 19.5757 12.2173 19.575 12.5C19.575 12.7833 19.4793 13.021 19.288 13.213C19.0967 13.405 18.859 13.5007 18.575 13.5H7.4L12.3 18.4C12.4833 18.5833 12.5793 18.8167 12.588 19.1C12.5967 19.3833 12.5007 19.6167 12.3 19.8C12.1167 20 11.8833 20.1 11.6 20.1C11.3167 20.1 11.075 20 10.875 19.8Z" fill="#F8F8F8"/>
</svg>
