<svg width="25" height="24" viewBox="0 0 25 24" fill="none" xmlns="http://www.w3.org/2000/svg">
<path d="M12.5051 22C11.1385 22 9.84679 21.7375 8.63013 21.2125C7.41346 20.6875 6.35096 19.9708 5.44263 19.0625C4.53429 18.1542 3.81763 17.0917 3.29263 15.875C2.76763 14.6583 2.50513 13.3667 2.50513 12C2.50513 10.6167 2.76763 9.32083 3.29263 8.1125C3.81763 6.90417 4.53429 5.84583 5.44263 4.9375C6.35096 4.02917 7.41346 3.3125 8.63013 2.7875C9.84679 2.2625 11.1385 2 12.5051 2C13.8885 2 15.1843 2.2625 16.3926 2.7875C17.601 3.3125 18.6593 4.02917 19.5676 4.9375C20.476 5.84583 21.1926 6.90417 21.7176 8.1125C22.2426 9.32083 22.5051 10.6167 22.5051 12C22.5051 13.3667 22.2426 14.6583 21.7176 15.875C21.1926 17.0917 20.476 18.1542 19.5676 19.0625C18.6593 19.9708 17.601 20.6875 16.3926 21.2125C15.1843 21.7375 13.8885 22 12.5051 22ZM12.5051 19.95C12.9385 19.35 13.3135 18.725 13.6301 18.075C13.9468 17.425 14.2051 16.7333 14.4051 16H10.6051C10.8051 16.7333 11.0635 17.425 11.3801 18.075C11.6968 18.725 12.0718 19.35 12.5051 19.95ZM9.90513 19.55C9.60513 19 9.34263 18.4292 9.11763 17.8375C8.89263 17.2458 8.70513 16.6333 8.55513 16H5.60513C6.08846 16.8333 6.69263 17.5583 7.41763 18.175C8.14263 18.7917 8.97179 19.25 9.90513 19.55ZM15.1051 19.55C16.0385 19.25 16.8676 18.7917 17.5926 18.175C18.3176 17.5583 18.9218 16.8333 19.4051 16H16.4551C16.3051 16.6333 16.1176 17.2458 15.8926 17.8375C15.6676 18.4292 15.4051 19 15.1051 19.55ZM4.75513 14H8.15513C8.10513 13.6667 8.06763 13.3375 8.04263 13.0125C8.01763 12.6875 8.00513 12.35 8.00513 12C8.00513 11.65 8.01763 11.3125 8.04263 10.9875C8.06763 10.6625 8.10513 10.3333 8.15513 10H4.75513C4.67179 10.3333 4.60929 10.6625 4.56763 10.9875C4.52596 11.3125 4.50513 11.65 4.50513 12C4.50513 12.35 4.52596 12.6875 4.56763 13.0125C4.60929 13.3375 4.67179 13.6667 4.75513 14ZM10.1551 14H14.8551C14.9051 13.6667 14.9426 13.3375 14.9676 13.0125C14.9926 12.6875 15.0051 12.35 15.0051 12C15.0051 11.65 14.9926 11.3125 14.9676 10.9875C14.9426 10.6625 14.9051 10.3333 14.8551 10H10.1551C10.1051 10.3333 10.0676 10.6625 10.0426 10.9875C10.0176 11.3125 10.0051 11.65 10.0051 12C10.0051 12.35 10.0176 12.6875 10.0426 13.0125C10.0676 13.3375 10.1051 13.6667 10.1551 14ZM16.8551 14H20.2551C20.3385 13.6667 20.401 13.3375 20.4426 13.0125C20.4843 12.6875 20.5051 12.35 20.5051 12C20.5051 11.65 20.4843 11.3125 20.4426 10.9875C20.401 10.6625 20.3385 10.3333 20.2551 10H16.8551C16.9051 10.3333 16.9426 10.6625 16.9676 10.9875C16.9926 11.3125 17.0051 11.65 17.0051 12C17.0051 12.35 16.9926 12.6875 16.9676 13.0125C16.9426 13.3375 16.9051 13.6667 16.8551 14ZM16.4551 8H19.4051C18.9218 7.16667 18.3176 6.44167 17.5926 5.825C16.8676 5.20833 16.0385 4.75 15.1051 4.45C15.4051 5 15.6676 5.57083 15.8926 6.1625C16.1176 6.75417 16.3051 7.36667 16.4551 8ZM10.6051 8H14.4051C14.2051 7.26667 13.9468 6.575 13.6301 5.925C13.3135 5.275 12.9385 4.65 12.5051 4.05C12.0718 4.65 11.6968 5.275 11.3801 5.925C11.0635 6.575 10.8051 7.26667 10.6051 8ZM5.60513 8H8.55513C8.70513 7.36667 8.89263 6.75417 9.11763 6.1625C9.34263 5.57083 9.60513 5 9.90513 4.45C8.97179 4.75 8.14263 5.20833 7.41763 5.825C6.69263 6.44167 6.08846 7.16667 5.60513 8Z" fill="#1D1B20"/>
</svg>
