<svg width="31" height="35" viewBox="0 0 31 35" fill="none" xmlns="http://www.w3.org/2000/svg">
<path d="M15.5 20.4167C14.4236 20.4167 13.5087 19.9913 12.7552 19.1406C12.0017 18.2899 11.625 17.2569 11.625 16.0417V7.29166C11.625 6.07638 12.0017 5.04339 12.7552 4.1927C13.5087 3.342 14.4236 2.91666 15.5 2.91666C16.5764 2.91666 17.4913 3.342 18.2448 4.1927C18.9983 5.04339 19.375 6.07638 19.375 7.29166V16.0417C19.375 17.2569 18.9983 18.2899 18.2448 19.1406C17.4913 19.9913 16.5764 20.4167 15.5 20.4167ZM14.2083 30.625V26.1406C11.9694 25.8003 10.1181 24.6701 8.65416 22.75C7.19027 20.8299 6.45833 18.5937 6.45833 16.0417H9.04166C9.04166 18.059 9.67135 19.7786 10.9307 21.2005C12.1901 22.6224 13.7132 23.3333 15.5 23.3333C17.2868 23.3333 18.8099 22.6224 20.0693 21.2005C21.3286 19.7786 21.9583 18.059 21.9583 16.0417H24.5417C24.5417 18.5937 23.8097 20.8299 22.3458 22.75C20.8819 24.6701 19.0306 25.8003 16.7917 26.1406V30.625H14.2083Z" fill="#00B7C0"/>
</svg>
