<svg width="97" height="85" viewBox="0 0 97 85" fill="none" xmlns="http://www.w3.org/2000/svg">
<path d="M48.5 49.5833C45.1319 49.5833 42.2691 48.5503 39.9115 46.4844C37.5538 44.4184 36.375 41.9097 36.375 38.9583V17.7083C36.375 14.7569 37.5538 12.2483 39.9115 10.1823C42.2691 8.11631 45.1319 7.08333 48.5 7.08333C51.868 7.08333 54.7309 8.11631 57.0885 10.1823C59.4462 12.2483 60.625 14.7569 60.625 17.7083V38.9583C60.625 41.9097 59.4462 44.4184 57.0885 46.4844C54.7309 48.5503 51.868 49.5833 48.5 49.5833ZM44.4583 74.375V63.4844C37.4528 62.658 31.6597 59.9132 27.0792 55.25C22.4986 50.5868 20.2083 45.1562 20.2083 38.9583H28.2917C28.2917 43.8576 30.262 48.0338 34.2026 51.487C38.1432 54.9401 42.909 56.6667 48.5 56.6667C54.091 56.6667 58.8568 54.9401 62.7974 51.487C66.738 48.0338 68.7083 43.8576 68.7083 38.9583H76.7917C76.7917 45.1562 74.5014 50.5868 69.9208 55.25C65.3403 59.9132 59.5472 62.658 52.5417 63.4844V74.375H44.4583Z" fill="#00B7C0"/>
</svg>
