<svg width="25" height="24" viewBox="0 0 25 24" fill="none" xmlns="http://www.w3.org/2000/svg">
<path d="M9.58333 22L9.18333 18.8C8.96666 18.7167 8.76249 18.6167 8.57083 18.5C8.37916 18.3833 8.19166 18.2583 8.00833 18.125L5.03333 19.375L2.28333 14.625L4.85833 12.675C4.84166 12.5583 4.83333 12.4458 4.83333 12.3375V11.6625C4.83333 11.5542 4.84166 11.4417 4.85833 11.325L2.28333 9.375L5.03333 4.625L8.00833 5.875C8.19166 5.74167 8.38333 5.61667 8.58333 5.5C8.78333 5.38333 8.98333 5.28333 9.18333 5.2L9.58333 2H15.0833L15.4833 5.2C15.7 5.28333 15.9042 5.38333 16.0958 5.5C16.2875 5.61667 16.475 5.74167 16.6583 5.875L19.6333 4.625L22.3833 9.375L19.8083 11.325C19.825 11.4417 19.8333 11.5542 19.8333 11.6625V12.3375C19.8333 12.4458 19.8167 12.5583 19.7833 12.675L22.3583 14.625L19.6083 19.375L16.6583 18.125C16.475 18.2583 16.2833 18.3833 16.0833 18.5C15.8833 18.6167 15.6833 18.7167 15.4833 18.8L15.0833 22H9.58333ZM12.3833 15.5C13.35 15.5 14.175 15.1583 14.8583 14.475C15.5417 13.7917 15.8833 12.9667 15.8833 12C15.8833 11.0333 15.5417 10.2083 14.8583 9.525C14.175 8.84167 13.35 8.5 12.3833 8.5C11.4 8.5 10.5708 8.84167 9.89583 9.525C9.22083 10.2083 8.88333 11.0333 8.88333 12C8.88333 12.9667 9.22083 13.7917 9.89583 14.475C10.5708 15.1583 11.4 15.5 12.3833 15.5Z" fill="#1D1B20"/>
</svg>
